<svg version="1.1" viewBox="0.0 0.0 651.0 400.0" fill="none" stroke="none" stroke-linecap="square" stroke-miterlimit="10" width="651" height="400" xmlns:xlink="http://www.w3.org/1999/xlink" xmlns="http://www.w3.org/2000/svg"><path fill="#434343" d="M0 0L651.0 0L651.0 400.0L0 400.0L0 0Z" fill-rule="nonzero"/><path fill="#4c1130" d="M199.06358 328.1165C147.09137 276.8258 131.2547 199.2192 158.97528 131.66614C186.69585 64.11309 252.48053 20.0 325.5 20.0L325.5 200.0Z" fill-rule="nonzero"/><path fill="#006d2c" d="M325.5 20.0C406.82184 20.0 478.04333 74.52581 499.26373 153.03018C520.48413 231.53455 486.43222 314.51666 416.18503 355.48706C345.93784 396.45746 256.94507 385.23895 199.06358 328.1165L325.5 200.0Z" fill-rule="nonzero"/><path fill="#ffffff" d="M28.09375 127.30159Q27.109375 128.12971 26.203125 128.47346Q25.296875 128.81721 24.265625 128.81721Q22.5625 128.81721 21.640625 127.98909Q20.71875 127.14534 20.71875 125.848465Q20.71875 125.08284 21.0625 124.45784Q21.421875 123.83284 21.984375 123.45784Q22.546875 123.067215 23.25 122.86409Q23.765625 122.73909 24.8125 122.598465Q26.9375 122.348465 27.9375 122.004715Q27.953125 121.64534 27.953125 121.535965Q27.953125 120.473465 27.453125 120.02034Q26.78125 119.42659 25.453125 119.42659Q24.203125 119.42659 23.609375 119.86409Q23.03125 120.30159 22.75 121.410965L21.03125 121.17659Q21.265625 120.067215 21.796875 119.39534Q22.328125 118.70784 23.34375 118.348465Q24.359375 117.973465 25.703125 117.973465Q27.03125 117.973465 27.859375 118.285965Q28.6875 118.598465 29.078125 119.08284Q29.46875 119.55159 29.625 120.27034Q29.71875 120.723465 29.71875 121.89534L29.71875 124.23909Q29.71875 126.692215 29.828125 127.348465Q29.9375 127.98909 30.28125 128.58284L28.4375 128.58284Q28.171875 128.03596 28.09375 127.30159ZM27.9375 123.379715Q26.984375 123.77034 25.0625 124.035965Q23.984375 124.192215 23.53125 124.39534Q23.09375 124.58284 22.84375 124.95784Q22.59375 125.33284 22.59375 125.80159Q22.59375 126.504715 23.125 126.973465Q23.65625 127.442215 24.6875 127.442215Q25.703125 127.442215 26.484375 127.004715Q27.28125 126.55159 27.65625 125.785965Q27.9375 125.17659 27.9375 124.02034L27.9375 123.379715ZM39.109375 128.58284L39.109375 127.05159Q37.90625 128.81721 35.828125 128.81721Q34.90625 128.81721 34.109375 128.47346Q33.3125 128.11409 32.921875 127.58284Q32.546875 127.05159 32.390625 126.27034Q32.28125 125.754715 32.28125 124.629715L32.28125 118.20784L34.03125 118.20784L34.03125 123.95784Q34.03125 125.33284 34.140625 125.817215Q34.3125 126.504715 34.84375 126.910965Q35.390625 127.30159 36.171875 127.30159Q36.96875 127.30159 37.65625 126.89534Q38.359375 126.48909 38.640625 125.80159Q38.9375 125.098465 38.9375 123.77034L38.9375 118.20784L40.6875 118.20784L40.6875 128.58284L39.109375 128.58284ZM46.15625 127.004715L46.40625 128.56721Q45.671875 128.72346 45.078125 128.72346Q44.125 128.72346 43.59375 128.42659Q43.078125 128.11409 42.859375 127.629715Q42.640625 127.129715 42.640625 125.55159L42.640625 119.58284L41.359375 119.58284L41.359375 118.20784L42.640625 118.20784L42.640625 115.64534L44.390625 114.58284L44.390625 118.20784L46.15625 118.20784L46.15625 119.58284L44.390625 119.58284L44.390625 125.64534Q44.390625 126.39534 44.484375 126.61409Q44.578125 126.817215 44.78125 126.95784Q45.0 127.08284 45.390625 127.08284Q45.671875 127.08284 46.15625 127.004715ZM47.671875 123.39534Q47.671875 120.52034 49.265625 119.129715Q50.609375 117.973465 52.53125 117.973465Q54.671875 117.973465 56.015625 119.379715Q57.375 120.785965 57.375 123.254715Q57.375 125.254715 56.78125 126.410965Q56.1875 127.55159 55.03125 128.19221Q53.890625 128.81721 52.53125 128.81721Q50.34375 128.81721 49.0 127.42659Q47.671875 126.02034 47.671875 123.39534ZM49.46875 123.39534Q49.46875 125.39534 50.328125 126.379715Q51.203125 127.36409 52.53125 127.36409Q53.84375 127.36409 54.703125 126.379715Q55.578125 125.379715 55.578125 123.33284Q55.578125 121.410965 54.703125 120.42659Q53.828125 119.42659 52.53125 119.42659Q51.203125 119.42659 50.328125 120.42659Q49.46875 121.410965 49.46875 123.39534ZM59.3125 128.58284L59.3125 118.20784L60.890625 118.20784L60.890625 119.660965Q61.375 118.910965 62.1875 118.442215Q63.0 117.973465 64.03125 117.973465Q65.1875 117.973465 65.921875 118.45784Q66.65625 118.92659 66.96875 119.785965Q68.203125 117.973465 70.171875 117.973465Q71.71875 117.973465 72.546875 118.83284Q73.375 119.692215 73.375 121.45784L73.375 128.58284L71.625 128.58284L71.625 122.05159Q71.625 120.98909 71.453125 120.535965Q71.28125 120.067215 70.828125 119.785965Q70.390625 119.504715 69.78125 119.504715Q68.6875 119.504715 67.953125 120.23909Q67.234375 120.95784 67.234375 122.55159L67.234375 128.58284L65.484375 128.58284L65.484375 121.848465Q65.484375 120.67659 65.046875 120.098465Q64.625 119.504715 63.640625 119.504715Q62.90625 119.504715 62.265625 119.89534Q61.640625 120.285965 61.359375 121.035965Q61.078125 121.785965 61.078125 123.20784L61.078125 128.58284L59.3125 128.58284ZM82.09375 127.30159Q81.109375 128.12971 80.203125 128.47346Q79.296875 128.81721 78.265625 128.81721Q76.5625 128.81721 75.640625 127.98909Q74.71875 127.14534 74.71875 125.848465Q74.71875 125.08284 75.0625 124.45784Q75.421875 123.83284 75.984375 123.45784Q76.546875 123.067215 77.25 122.86409Q77.765625 122.73909 78.8125 122.598465Q80.9375 122.348465 81.9375 122.004715Q81.953125 121.64534 81.953125 121.535965Q81.953125 120.473465 81.453125 120.02034Q80.78125 119.42659 79.453125 119.42659Q78.203125 119.42659 77.609375 119.86409Q77.03125 120.30159 76.75 121.410965L75.03125 121.17659Q75.265625 120.067215 75.796875 119.39534Q76.328125 118.70784 77.34375 118.348465Q78.359375 117.973465 79.703125 117.973465Q81.03125 117.973465 81.859375 118.285965Q82.6875 118.598465 83.078125 119.08284Q83.46875 119.55159 83.625 120.27034Q83.71875 120.723465 83.71875 121.89534L83.71875 124.23909Q83.71875 126.692215 83.828125 127.348465Q83.9375 127.98909 84.28125 128.58284L82.4375 128.58284Q82.171875 128.03596 82.09375 127.30159ZM81.9375 123.379715Q80.984375 123.77034 79.0625 124.035965Q77.984375 124.192215 77.53125 124.39534Q77.09375 124.58284 76.84375 124.95784Q76.59375 125.33284 76.59375 125.80159Q76.59375 126.504715 77.125 126.973465Q77.65625 127.442215 78.6875 127.442215Q79.703125 127.442215 80.484375 127.004715Q81.28125 126.55159 81.65625 125.785965Q81.9375 125.17659 81.9375 124.02034L81.9375 123.379715ZM78.53125 116.92659L79.828125 114.192215L82.125 114.192215L79.984375 116.92659L78.53125 116.92659ZM90.15625 127.004715L90.40625 128.56721Q89.671875 128.72346 89.078125 128.72346Q88.125 128.72346 87.59375 128.42659Q87.078125 128.11409 86.859375 127.629715Q86.640625 127.129715 86.640625 125.55159L86.640625 119.58284L85.359375 119.58284L85.359375 118.20784L86.640625 118.20784L86.640625 115.64534L88.390625 114.58284L88.390625 118.20784L90.15625 118.20784L90.15625 119.58284L88.390625 119.58284L88.390625 125.64534Q88.390625 126.39534 88.484375 126.61409Q88.578125 126.817215 88.78125 126.95784Q89.0 127.08284 89.390625 127.08284Q89.671875 127.08284 90.15625 127.004715ZM92.328125 116.285965L92.328125 114.27034L94.09375 114.27034L94.09375 116.285965L92.328125 116.285965ZM92.328125 128.58284L92.328125 118.20784L94.09375 118.20784L94.09375 128.58284L92.328125 128.58284ZM103.09375 124.785965L104.8125 125.004715Q104.53125 126.80159 103.359375 127.817215Q102.203125 128.81721 100.5 128.81721Q98.375 128.81721 97.078125 127.42659Q95.78125 126.035965 95.78125 123.442215Q95.78125 121.754715 96.328125 120.504715Q96.890625 119.23909 98.03125 118.61409Q99.171875 117.973465 100.515625 117.973465Q102.203125 117.973465 103.265625 118.83284Q104.34375 119.692215 104.65625 121.254715L102.9375 121.52034Q102.703125 120.473465 102.078125 119.95784Q101.453125 119.42659 100.578125 119.42659Q99.25 119.42659 98.421875 120.379715Q97.59375 121.33284 97.59375 123.379715Q97.59375 125.473465 98.390625 126.42659Q99.1875 127.36409 100.484375 127.36409Q101.515625 127.36409 102.203125 126.73909Q102.90625 126.098465 103.09375 124.785965ZM105.671875 123.39534Q105.671875 120.52034 107.265625 119.129715Q108.609375 117.973465 110.53125 117.973465Q112.671875 117.973465 114.015625 119.379715Q115.375 120.785965 115.375 123.254715Q115.375 125.254715 114.78125 126.410965Q114.1875 127.55159 113.03125 128.19221Q111.890625 128.81721 110.53125 128.81721Q108.34375 128.81721 107.0 127.42659Q105.671875 126.02034 105.671875 123.39534ZM107.46875 123.39534Q107.46875 125.39534 108.328125 126.379715Q109.203125 127.36409 110.53125 127.36409Q111.84375 127.36409 112.703125 126.379715Q113.578125 125.379715 113.578125 123.33284Q113.578125 121.410965 112.703125 120.42659Q111.828125 119.42659 110.53125 119.42659Q109.203125 119.42659 108.328125 120.42659Q107.46875 121.410965 107.46875 123.39534Z" fill-rule="nonzero"/><path fill="#a4a4a4" d="M20.84375 151.80159L22.59375 151.56721Q22.90625 153.06721 23.625 153.72346Q24.359375 154.37971 25.40625 154.37971Q26.640625 154.37971 27.484375 153.52034Q28.34375 152.66096 28.34375 151.39534Q28.34375 150.17659 27.546875 149.39534Q26.765625 148.61409 25.546875 148.61409Q25.046875 148.61409 24.3125 148.80159L24.5 147.25471Q24.671875 147.28596 24.78125 147.28596Q25.90625 147.28596 26.796875 146.70784Q27.703125 146.11409 27.703125 144.89534Q27.703125 143.92659 27.046875 143.28596Q26.390625 142.64534 25.359375 142.64534Q24.34375 142.64534 23.65625 143.30159Q22.96875 143.94221 22.78125 145.22346L21.015625 144.91096Q21.34375 143.14534 22.484375 142.17659Q23.625 141.20784 25.328125 141.20784Q26.5 141.20784 27.484375 141.70784Q28.46875 142.20784 28.984375 143.08284Q29.515625 143.95784 29.515625 144.92659Q29.515625 145.84846 29.015625 146.61409Q28.515625 147.37971 27.546875 147.83284Q28.8125 148.11409 29.515625 149.05159Q30.21875 149.97346 30.21875 151.34846Q30.21875 153.22346 28.84375 154.53596Q27.484375 155.83284 25.390625 155.83284Q23.5 155.83284 22.25 154.70784Q21.015625 153.58284 20.84375 151.80159ZM31.953125 143.14534L31.953125 141.45784L41.21875 141.45784L41.21875 142.81721Q39.84375 144.27034 38.5 146.69221Q37.15625 149.09846 36.4375 151.64534Q35.90625 153.44221 35.75 155.58284L33.953125 155.58284Q33.984375 153.89534 34.609375 151.50471Q35.25 149.11409 36.4375 146.89534Q37.625 144.66096 38.953125 143.14534L31.953125 143.14534ZM43.8125 155.58284L43.8125 153.58284L45.8125 153.58284L45.8125 155.58284L43.8125 155.58284ZM57.953125 144.77034L56.203125 144.91096Q55.96875 143.87971 55.546875 143.41096Q54.828125 142.64534 53.78125 142.64534Q52.9375 142.64534 52.3125 143.11409Q51.484375 143.72346 51.0 144.89534Q50.515625 146.05159 50.5 148.19221Q51.140625 147.23909 52.046875 146.77034Q52.96875 146.30159 53.984375 146.30159Q55.734375 146.30159 56.96875 147.59846Q58.203125 148.87971 58.203125 150.92659Q58.203125 152.28596 57.625 153.44221Q57.046875 154.59846 56.03125 155.22346Q55.015625 155.83284 53.71875 155.83284Q51.53125 155.83284 50.140625 154.22346Q48.75 152.59846 48.75 148.87971Q48.75 144.73909 50.28125 142.84846Q51.625 141.20784 53.890625 141.20784Q55.578125 141.20784 56.65625 142.16096Q57.734375 143.09846 57.953125 144.77034ZM50.78125 150.94221Q50.78125 151.84846 51.15625 152.67659Q51.546875 153.50471 52.234375 153.94221Q52.9375 154.37971 53.6875 154.37971Q54.8125 154.37971 55.609375 153.48909Q56.40625 152.58284 56.40625 151.03596Q56.40625 149.55159 55.609375 148.70784Q54.828125 147.84846 53.625 147.84846Q52.4375 147.84846 51.609375 148.70784Q50.78125 149.55159 50.78125 150.94221ZM60.15625 144.70784Q60.15625 143.17659 60.921875 142.09846Q61.703125 141.02034 63.171875 141.02034Q64.515625 141.02034 65.390625 141.98909Q66.28125 142.94221 66.28125 144.81721Q66.28125 146.62971 65.390625 147.61409Q64.5 148.58284 63.1875 148.58284Q61.890625 148.58284 61.015625 147.62971Q60.15625 146.66096 60.15625 144.70784ZM63.21875 142.23909Q62.5625 142.23909 62.125 142.80159Q61.703125 143.36409 61.703125 144.87971Q61.703125 146.25471 62.140625 146.81721Q62.578125 147.37971 63.21875 147.37971Q63.890625 147.37971 64.3125 146.81721Q64.75 146.23909 64.75 144.73909Q64.75 143.34846 64.3125 142.80159Q63.875 142.23909 63.21875 142.23909ZM63.234375 156.11409L71.0625 141.02034L72.484375 141.02034L64.6875 156.11409L63.234375 156.11409ZM69.421875 152.22346Q69.421875 150.67659 70.1875 149.61409Q70.96875 148.53596 72.4375 148.53596Q73.78125 148.53596 74.65625 149.50471Q75.546875 150.45784 75.546875 152.33284Q75.546875 154.14534 74.65625 155.12971Q73.765625 156.11409 72.453125 156.11409Q71.15625 156.11409 70.28125 155.14534Q69.421875 154.16096 69.421875 152.22346ZM72.484375 149.75471Q71.828125 149.75471 71.390625 150.31721Q70.953125 150.87971 70.953125 152.39534Q70.953125 153.77034 71.390625 154.33284Q71.828125 154.89534 72.484375 154.89534Q73.15625 154.89534 73.578125 154.33284Q74.015625 153.77034 74.015625 152.25471Q74.015625 150.87971 73.578125 150.31721Q73.140625 149.75471 72.484375 149.75471Z" fill-rule="nonzero"/><path stroke="#cdcdcd" stroke-width="1.0" stroke-linecap="butt" d="M20.0 135.08284L139.5 135.08284L167.30151 135.08284" fill-rule="nonzero"/><path fill="#a4a4a4" d="M169.30151 135.08284C169.30151 133.97826 168.40608 133.08284 167.30151 133.08284C166.19695 133.08284 165.30151 133.97826 165.30151 135.08284C165.30151 136.18741 166.19695 137.08284 167.30151 137.08284C168.40608 137.08284 169.30151 136.18741 169.30151 135.08284" fill-rule="nonzero"/><path fill="#ffffff" d="M530.09375 254.6203L531.8125 254.83905Q531.53125 256.63593 530.3594 257.65155Q529.2031 258.65155 527.5 258.65155Q525.375 258.65155 524.0781 257.26093Q522.78125 255.8703 522.78125 253.27655Q522.78125 251.58905 523.3281 250.33905Q523.8906 249.07343 525.03125 248.44843Q526.1719 247.8078 527.5156 247.8078Q529.2031 247.8078 530.2656 248.66718Q531.34375 249.52655 531.65625 251.08905L529.9375 251.35468Q529.7031 250.3078 529.0781 249.79218Q528.4531 249.26093 527.5781 249.26093Q526.25 249.26093 525.4219 250.21405Q524.59375 251.16718 524.59375 253.21405Q524.59375 255.3078 525.3906 256.26093Q526.1875 257.19843 527.4844 257.19843Q528.5156 257.19843 529.2031 256.57343Q529.90625 255.9328 530.09375 254.6203ZM540.1094 258.41718L540.1094 256.88593Q538.90625 258.65155 536.8281 258.65155Q535.90625 258.65155 535.1094 258.3078Q534.3125 257.94843 533.9219 257.41718Q533.5469 256.88593 533.3906 256.10468Q533.28125 255.58905 533.28125 254.46405L533.28125 248.04218L535.03125 248.04218L535.03125 253.79218Q535.03125 255.16718 535.1406 255.65155Q535.3125 256.33905 535.84375 256.7453Q536.3906 257.13593 537.1719 257.13593Q537.96875 257.13593 538.65625 256.72968Q539.3594 256.32343 539.6406 255.63593Q539.9375 254.9328 539.9375 253.60468L539.9375 248.04218L541.6875 248.04218L541.6875 258.41718L540.1094 258.41718ZM542.6094 255.32343L544.3594 255.04218Q544.5 256.08905 545.1719 256.65155Q545.84375 257.19843 547.0469 257.19843Q548.25 257.19843 548.8281 256.71405Q549.4219 256.21405 549.4219 255.5578Q549.4219 254.96405 548.90625 254.6203Q548.5469 254.38593 547.1094 254.02655Q545.1719 253.52655 544.4219 253.1828Q543.6875 252.82343 543.2969 252.19843Q542.90625 251.5578 542.90625 250.79218Q542.90625 250.10468 543.21875 249.51093Q543.5469 248.91718 544.09375 248.52655Q544.5 248.22968 545.2031 248.02655Q545.9219 247.8078 546.7344 247.8078Q547.9531 247.8078 548.875 248.16718Q549.7969 248.51093 550.2344 249.1203Q550.6719 249.71405 550.84375 250.71405L549.125 250.94843Q549.0 250.15155 548.4375 249.71405Q547.875 249.26093 546.8594 249.26093Q545.6406 249.26093 545.125 249.66718Q544.6094 250.0578 544.6094 250.58905Q544.6094 250.9328 544.8281 251.21405Q545.03125 251.4953 545.5 251.6828Q545.7656 251.77655 547.0469 252.1203Q548.9219 252.6203 549.65625 252.94843Q550.3906 253.26093 550.8125 253.8703Q551.2344 254.46405 551.2344 255.3703Q551.2344 256.2453 550.71875 257.02655Q550.2031 257.8078 549.2344 258.22968Q548.2656 258.65155 547.0469 258.65155Q545.03125 258.65155 543.96875 257.8078Q542.90625 256.96405 542.6094 255.32343ZM557.15625 256.83905L557.40625 258.40155Q556.6719 258.5578 556.0781 258.5578Q555.125 258.5578 554.59375 258.26093Q554.0781 257.94843 553.8594 257.46405Q553.6406 256.96405 553.6406 255.38593L553.6406 249.41718L552.3594 249.41718L552.3594 248.04218L553.6406 248.04218L553.6406 245.47968L555.3906 244.41718L555.3906 248.04218L557.15625 248.04218L557.15625 249.41718L555.3906 249.41718L555.3906 255.47968Q555.3906 256.22968 555.4844 256.44843Q555.5781 256.65155 555.78125 256.79218Q556.0 256.91718 556.3906 256.91718Q556.6719 256.91718 557.15625 256.83905ZM558.6719 253.22968Q558.6719 250.35468 560.2656 248.96405Q561.6094 247.8078 563.53125 247.8078Q565.6719 247.8078 567.0156 249.21405Q568.375 250.6203 568.375 253.08905Q568.375 255.08905 567.78125 256.2453Q567.1875 257.38593 566.03125 258.02655Q564.8906 258.65155 563.53125 258.65155Q561.34375 258.65155 560.0 257.26093Q558.6719 255.85468 558.6719 253.22968ZM560.46875 253.22968Q560.46875 255.22968 561.3281 256.21405Q562.2031 257.19843 563.53125 257.19843Q564.84375 257.19843 565.7031 256.21405Q566.5781 255.21405 566.5781 253.16718Q566.5781 251.2453 565.7031 250.26093Q564.8281 249.26093 563.53125 249.26093Q562.2031 249.26093 561.3281 250.26093Q560.46875 251.2453 560.46875 253.22968ZM570.3125 258.41718L570.3125 248.04218L571.8906 248.04218L571.8906 249.4953Q572.375 248.7453 573.1875 248.27655Q574.0 247.8078 575.03125 247.8078Q576.1875 247.8078 576.9219 248.29218Q577.65625 248.76093 577.96875 249.6203Q579.2031 247.8078 581.1719 247.8078Q582.71875 247.8078 583.5469 248.66718Q584.375 249.52655 584.375 251.29218L584.375 258.41718L582.625 258.41718L582.625 251.88593Q582.625 250.82343 582.4531 250.3703Q582.28125 249.90155 581.8281 249.6203Q581.3906 249.33905 580.78125 249.33905Q579.6875 249.33905 578.9531 250.07343Q578.2344 250.79218 578.2344 252.38593L578.2344 258.41718L576.4844 258.41718L576.4844 251.6828Q576.4844 250.51093 576.0469 249.9328Q575.625 249.33905 574.6406 249.33905Q573.90625 249.33905 573.2656 249.72968Q572.6406 250.1203 572.3594 250.8703Q572.0781 251.6203 572.0781 253.04218L572.0781 258.41718L570.3125 258.41718ZM586.3281 246.1203L586.3281 244.10468L588.09375 244.10468L588.09375 246.1203L586.3281 246.1203ZM586.3281 258.41718L586.3281 248.04218L588.09375 248.04218L588.09375 258.41718L586.3281 258.41718ZM589.3906 258.41718L589.3906 256.9953L596.0 249.41718Q594.875 249.46405 594.0156 249.46405L589.78125 249.46405L589.78125 248.04218L598.2656 248.04218L598.2656 249.21405L592.6406 255.79218L591.5625 256.9953Q592.7344 256.90155 593.78125 256.90155L598.5781 256.90155L598.5781 258.41718L589.3906 258.41718ZM606.09375 257.13593Q605.1094 257.96405 604.2031 258.3078Q603.2969 258.65155 602.2656 258.65155Q600.5625 258.65155 599.6406 257.82343Q598.71875 256.97968 598.71875 255.6828Q598.71875 254.91718 599.0625 254.29218Q599.4219 253.66718 599.9844 253.29218Q600.5469 252.90155 601.25 252.69843Q601.7656 252.57343 602.8125 252.4328Q604.9375 252.1828 605.9375 251.83905Q605.9531 251.47968 605.9531 251.3703Q605.9531 250.3078 605.4531 249.85468Q604.78125 249.26093 603.4531 249.26093Q602.2031 249.26093 601.6094 249.69843Q601.03125 250.13593 600.75 251.2453L599.03125 251.01093Q599.2656 249.90155 599.7969 249.22968Q600.3281 248.54218 601.34375 248.1828Q602.3594 247.8078 603.7031 247.8078Q605.03125 247.8078 605.8594 248.1203Q606.6875 248.4328 607.0781 248.91718Q607.46875 249.38593 607.625 250.10468Q607.71875 250.5578 607.71875 251.72968L607.71875 254.07343Q607.71875 256.52655 607.8281 257.1828Q607.9375 257.82343 608.28125 258.41718L606.4375 258.41718Q606.1719 257.8703 606.09375 257.13593ZM605.9375 253.21405Q604.9844 253.60468 603.0625 253.8703Q601.9844 254.02655 601.53125 254.22968Q601.09375 254.41718 600.84375 254.79218Q600.59375 255.16718 600.59375 255.63593Q600.59375 256.33905 601.125 256.8078Q601.65625 257.27655 602.6875 257.27655Q603.7031 257.27655 604.4844 256.83905Q605.28125 256.38593 605.65625 255.6203Q605.9375 255.01093 605.9375 253.85468L605.9375 253.21405ZM617.0469 258.41718L617.0469 257.10468Q616.0625 258.65155 614.1406 258.65155Q612.90625 258.65155 611.8594 257.96405Q610.8281 257.27655 610.25 256.0578Q609.6875 254.83905 609.6875 253.2453Q609.6875 251.6828 610.2031 250.41718Q610.71875 249.15155 611.75 248.47968Q612.7969 247.8078 614.0625 247.8078Q615.0 247.8078 615.7344 248.21405Q616.46875 248.60468 616.9375 249.22968L616.9375 244.10468L618.6719 244.10468L618.6719 258.41718L617.0469 258.41718ZM611.4844 253.2453Q611.4844 255.22968 612.3281 256.21405Q613.1719 257.19843 614.3125 257.19843Q615.46875 257.19843 616.2656 256.26093Q617.0781 255.32343 617.0781 253.38593Q617.0781 251.26093 616.25 250.26093Q615.4375 249.26093 614.2344 249.26093Q613.0625 249.26093 612.2656 250.22968Q611.4844 251.1828 611.4844 253.2453ZM620.6719 253.22968Q620.6719 250.35468 622.2656 248.96405Q623.6094 247.8078 625.53125 247.8078Q627.6719 247.8078 629.0156 249.21405Q630.375 250.6203 630.375 253.08905Q630.375 255.08905 629.78125 256.2453Q629.1875 257.38593 628.03125 258.02655Q626.8906 258.65155 625.53125 258.65155Q623.34375 258.65155 622.0 257.26093Q620.6719 255.85468 620.6719 253.22968ZM622.46875 253.22968Q622.46875 255.22968 623.3281 256.21405Q624.2031 257.19843 625.53125 257.19843Q626.84375 257.19843 627.7031 256.21405Q628.5781 255.21405 628.5781 253.16718Q628.5781 251.2453 627.7031 250.26093Q626.8281 249.26093 625.53125 249.26093Q624.2031 249.26093 623.3281 250.26093Q622.46875 251.2453 622.46875 253.22968Z" fill-rule="nonzero"/><path fill="#a4a4a4" d="M583.9531 274.60468L582.2031 274.7453Q581.96875 273.71405 581.5469 273.2453Q580.8281 272.47968 579.78125 272.47968Q578.9375 272.47968 578.3125 272.94843Q577.4844 273.5578 577.0 274.72968Q576.5156 275.88593 576.5 278.02655Q577.1406 277.07343 578.0469 276.60468Q578.96875 276.13593 579.9844 276.13593Q581.7344 276.13593 582.96875 277.4328Q584.2031 278.71405 584.2031 280.76093Q584.2031 282.1203 583.625 283.27655Q583.0469 284.4328 582.03125 285.0578Q581.0156 285.66718 579.71875 285.66718Q577.53125 285.66718 576.1406 284.0578Q574.75 282.4328 574.75 278.71405Q574.75 274.57343 576.28125 272.6828Q577.625 271.04218 579.8906 271.04218Q581.5781 271.04218 582.65625 271.9953Q583.7344 272.9328 583.9531 274.60468ZM576.78125 280.77655Q576.78125 281.6828 577.15625 282.51093Q577.5469 283.33905 578.2344 283.77655Q578.9375 284.21405 579.6875 284.21405Q580.8125 284.21405 581.6094 283.32343Q582.40625 282.41718 582.40625 280.8703Q582.40625 279.38593 581.6094 278.54218Q580.8281 277.6828 579.625 277.6828Q578.4375 277.6828 577.6094 278.54218Q576.78125 279.38593 576.78125 280.77655ZM595.0625 283.72968L595.0625 285.41718L585.6094 285.41718Q585.59375 284.77655 585.8125 284.19843Q586.1719 283.22968 586.96875 282.29218Q587.7656 281.35468 589.2656 280.1203Q591.6094 278.21405 592.4219 277.10468Q593.25 275.97968 593.25 274.97968Q593.25 273.9328 592.5 273.21405Q591.75 272.4953 590.5469 272.4953Q589.28125 272.4953 588.5156 273.26093Q587.75 274.02655 587.75 275.3703L585.9375 275.1828Q586.125 273.16718 587.3281 272.10468Q588.5469 271.04218 590.59375 271.04218Q592.6406 271.04218 593.84375 272.1828Q595.0469 273.32343 595.0469 275.01093Q595.0469 275.8703 594.6875 276.71405Q594.34375 277.54218 593.53125 278.46405Q592.71875 279.3703 590.8281 280.97968Q589.2344 282.3078 588.78125 282.77655Q588.34375 283.2453 588.0469 283.72968L595.0625 283.72968ZM597.8125 285.41718L597.8125 283.41718L599.8125 283.41718L599.8125 285.41718L597.8125 285.41718ZM608.46875 285.41718L608.46875 281.9953L602.25 281.9953L602.25 280.3703L608.78125 271.10468L610.21875 271.10468L610.21875 280.3703L612.15625 280.3703L612.15625 281.9953L610.21875 281.9953L610.21875 285.41718L608.46875 285.41718ZM608.46875 280.3703L608.46875 273.91718L603.9844 280.3703L608.46875 280.3703ZM614.15625 274.54218Q614.15625 273.01093 614.9219 271.9328Q615.7031 270.85468 617.1719 270.85468Q618.5156 270.85468 619.3906 271.82343Q620.28125 272.77655 620.28125 274.65155Q620.28125 276.46405 619.3906 277.44843Q618.5 278.41718 617.1875 278.41718Q615.8906 278.41718 615.0156 277.46405Q614.15625 276.4953 614.15625 274.54218ZM617.21875 272.07343Q616.5625 272.07343 616.125 272.63593Q615.7031 273.19843 615.7031 274.71405Q615.7031 276.08905 616.1406 276.65155Q616.5781 277.21405 617.21875 277.21405Q617.8906 277.21405 618.3125 276.65155Q618.75 276.07343 618.75 274.57343Q618.75 273.1828 618.3125 272.63593Q617.875 272.07343 617.21875 272.07343ZM617.2344 285.94843L625.0625 270.85468L626.4844 270.85468L618.6875 285.94843L617.2344 285.94843ZM623.4219 282.0578Q623.4219 280.51093 624.1875 279.44843Q624.96875 278.3703 626.4375 278.3703Q627.78125 278.3703 628.65625 279.33905Q629.5469 280.29218 629.5469 282.16718Q629.5469 283.97968 628.65625 284.96405Q627.7656 285.94843 626.4531 285.94843Q625.15625 285.94843 624.28125 284.97968Q623.4219 283.9953 623.4219 282.0578ZM626.4844 279.58905Q625.8281 279.58905 625.3906 280.15155Q624.9531 280.71405 624.9531 282.22968Q624.9531 283.60468 625.3906 284.16718Q625.8281 284.72968 626.4844 284.72968Q627.15625 284.72968 627.5781 284.16718Q628.0156 283.60468 628.0156 282.08905Q628.0156 280.71405 627.5781 280.15155Q627.1406 279.58905 626.4844 279.58905Z" fill-rule="nonzero"/><path stroke="#cdcdcd" stroke-width="1.0" stroke-linecap="butt" d="M631.0 264.91718L511.5 264.91718L483.6985 264.91718" fill-rule="nonzero"/><path fill="#a4a4a4" d="M485.6985 264.91718C485.6985 263.8126 484.80307 262.91718 483.6985 262.91718C482.5939 262.91718 481.6985 263.8126 481.6985 264.91718C481.6985 266.02173 482.5939 266.91718 483.6985 266.91718C484.80307 266.91718 485.6985 266.02173 485.6985 264.91718" fill-rule="nonzero"/></svg>