<svg xmlns="http://www.w3.org/2000/svg" width="300" height="540"><rect width="100%" height="100%" fill="#383838" /><rect x="0" y="0" width="18" height="18" fill="#e5f5e0" stroke="white" stroke-width="0"/><rect x="20" y="0" width="18" height="18" fill="#a3d9b1" stroke="white" stroke-width="0"/><rect x="40" y="0" width="18" height="18" fill="#a3d9b1" stroke="white" stroke-width="0"/><rect x="60" y="0" width="18" height="18" fill="#434343" stroke="white" stroke-width="0"/><rect x="80" y="0" width="18" height="18" fill="#434343" stroke="white" stroke-width="0"/><rect x="100" y="0" width="18" height="18" fill="#434343" stroke="white" stroke-width="0"/><rect x="120" y="0" width="18" height="18" fill="#a3d9b1" stroke="white" stroke-width="0"/><rect x="140" y="0" width="18" height="18" fill="#9ed4ac" stroke="white" stroke-width="0"/><rect x="160" y="0" width="18" height="18" fill="#a3d9b1" stroke="white" stroke-width="0"/><rect x="180" y="0" width="18" height="18" fill="#99d0a8" stroke="white" stroke-width="0"/><rect x="200" y="0" width="18" height="18" fill="#434343" stroke="white" stroke-width="0"/><rect x="220" y="0" width="18" height="18" fill="#434343" stroke="white" stroke-width="0"/><rect x="240" y="0" width="18" height="18" fill="#8ac299" stroke="white" stroke-width="0"/><rect x="260" y="0" width="18" height="18" fill="#434343" stroke="white" stroke-width="0"/><rect x="280" y="0" width="18" height="18" fill="#434343" stroke="white" stroke-width="0"/><rect x="0" y="20" width="18" height="18" fill="#e5f5e0" stroke="white" stroke-width="0"/><rect x="20" y="20" width="18" height="18" fill="#e5f5e0" stroke="white" stroke-width="0"/><rect x="40" y="20" width="18" height="18" fill="#e5f5e0" stroke="white" stroke-width="0"/><rect x="60" y="20" width="18" height="18" fill="#434343" stroke="white" stroke-width="0"/><rect x="80" y="20" width="18" height="18" fill="#434343" stroke="white" stroke-width="0"/><rect x="100" y="20" width="18" height="18" fill="#434343" stroke="white" stroke-width="0"/><rect x="120" y="20" width="18" height="18" fill="#e5f5e0" stroke="white" stroke-width="0"/><rect x="140" y="20" width="18" height="18" fill="#e5f5e0" stroke="white" stroke-width="0"/><rect x="160" y="20" width="18" height="18" fill="#434343" stroke="white" stroke-width="0"/><rect x="180" y="20" width="18" height="18" fill="#e5f5e0" stroke="white" stroke-width="0"/><rect x="200" y="20" width="18" height="18" fill="#434343" stroke="white" stroke-width="0"/><rect x="220" y="20" width="18" height="18" fill="#e5f5e0" stroke="white" stroke-width="0"/><rect x="240" y="20" width="18" height="18" fill="#8fc69e" stroke="white" stroke-width="0"/><rect x="260" y="20" width="18" height="18" fill="#434343" stroke="white" stroke-width="0"/><rect x="280" y="20" width="18" height="18" fill="#434343" stroke="white" stroke-width="0"/><rect x="0" y="40" width="18" height="18" fill="#e5f5e0" stroke="white" stroke-width="0"/><rect x="20" y="40" width="18" height="18" fill="#e5f5e0" stroke="white" stroke-width="0"/><rect x="40" y="40" width="18" height="18" fill="#e5f5e0" stroke="white" stroke-width="0"/><rect x="60" y="40" width="18" height="18" fill="#434343" stroke="white" stroke-width="0"/><rect x="80" y="40" width="18" height="18" fill="#434343" stroke="white" stroke-width="0"/><rect x="100" y="40" width="18" height="18" fill="#e5f5e0" stroke="white" stroke-width="0"/><rect x="120" y="40" width="18" height="18" fill="#434343" stroke="white" stroke-width="0"/><rect x="140" y="40" width="18" height="18" fill="#434343" stroke="white" stroke-width="0"/><rect x="160" y="40" width="18" height="18" fill="#434343" stroke="white" stroke-width="0"/><rect x="180" y="40" width="18" height="18" fill="#434343" stroke="white" stroke-width="0"/><rect x="200" y="40" width="18" height="18" fill="#434343" stroke="white" stroke-width="0"/><rect x="220" y="40" width="18" height="18" fill="#99d0a8" stroke="white" stroke-width="0"/><rect x="240" y="40" width="18" height="18" fill="#434343" stroke="white" stroke-width="0"/><rect x="260" y="40" width="18" height="18" fill="#e5f5e0" stroke="white" stroke-width="0"/><rect x="280" y="40" width="18" height="18" fill="#434343" stroke="white" stroke-width="0"/><rect x="0" y="60" width="18" height="18" fill="#e5f5e0" stroke="white" stroke-width="0"/><rect x="20" y="60" width="18" height="18" fill="#a3d9b1" stroke="white" stroke-width="0"/><rect x="40" y="60" width="18" height="18" fill="#a3d9b1" stroke="white" stroke-width="0"/><rect x="60" y="60" width="18" height="18" fill="#434343" stroke="white" stroke-width="0"/><rect x="80" y="60" width="18" height="18" fill="#434343" stroke="white" stroke-width="0"/><rect x="100" y="60" width="18" height="18" fill="#434343" stroke="white" stroke-width="0"/><rect x="120" y="60" width="18" height="18" fill="#434343" stroke="white" stroke-width="0"/><rect x="140" y="60" width="18" height="18" fill="#434343" stroke="white" stroke-width="0"/><rect x="160" y="60" width="18" height="18" fill="#434343" stroke="white" stroke-width="0"/><rect x="180" y="60" width="18" height="18" fill="#e5f5e0" stroke="white" stroke-width="0"/><rect x="200" y="60" width="18" height="18" fill="#e5f5e0" stroke="white" stroke-width="0"/><rect x="220" y="60" width="18" height="18" fill="#434343" stroke="white" stroke-width="0"/><rect x="240" y="60" width="18" height="18" fill="#a3d9b1" stroke="white" stroke-width="0"/><rect x="260" y="60" width="18" height="18" fill="#e5f5e0" stroke="white" stroke-width="0"/><rect x="280" y="60" width="18" height="18" fill="#434343" stroke="white" stroke-width="0"/><rect x="0" y="80" width="18" height="18" fill="#e5f5e0" stroke="white" stroke-width="0"/><rect x="20" y="80" width="18" height="18" fill="#a3d9b1" stroke="white" stroke-width="0"/><rect x="40" y="80" width="18" height="18" fill="#434343" stroke="white" stroke-width="0"/><rect x="60" y="80" width="18" height="18" fill="#434343" stroke="white" stroke-width="0"/><rect x="80" y="80" width="18" height="18" fill="#434343" stroke="white" stroke-width="0"/><rect x="100" y="80" width="18" height="18" fill="#434343" stroke="white" stroke-width="0"/><rect x="120" y="80" width="18" height="18" fill="#434343" stroke="white" stroke-width="0"/><rect x="140" y="80" width="18" height="18" fill="#a3d9b1" stroke="white" stroke-width="0"/><rect x="160" y="80" width="18" height="18" fill="#9ed4ac" stroke="white" stroke-width="0"/><rect x="180" y="80" width="18" height="18" fill="#9ed4ac" stroke="white" stroke-width="0"/><rect x="200" y="80" width="18" height="18" fill="#e5f5e0" stroke="white" stroke-width="0"/><rect x="220" y="80" width="18" height="18" fill="#8ac299" stroke="white" stroke-width="0"/><rect x="240" y="80" width="18" height="18" fill="#e5f5e0" stroke="white" stroke-width="0"/><rect x="260" y="80" width="18" height="18" fill="#434343" stroke="white" stroke-width="0"/><rect x="280" y="80" width="18" height="18" fill="#434343" stroke="white" stroke-width="0"/><rect x="0" y="100" width="18" height="18" fill="#a3d9b1" stroke="white" stroke-width="0"/><rect x="20" y="100" width="18" height="18" fill="#a3d9b1" stroke="white" stroke-width="0"/><rect x="40" y="100" width="18" height="18" fill="#e5f5e0" stroke="white" stroke-width="0"/><rect x="60" y="100" width="18" height="18" fill="#434343" stroke="white" stroke-width="0"/><rect x="80" y="100" width="18" height="18" fill="#99d0a8" stroke="white" stroke-width="0"/><rect x="100" y="100" width="18" height="18" fill="#434343" stroke="white" stroke-width="0"/><rect x="120" y="100" width="18" height="18" fill="#434343" stroke="white" stroke-width="0"/><rect x="140" y="100" width="18" height="18" fill="#434343" stroke="white" stroke-width="0"/><rect x="160" y="100" width="18" height="18" fill="#e5f5e0" stroke="white" stroke-width="0"/><rect x="180" y="100" width="18" height="18" fill="#7bb48b" stroke="white" stroke-width="0"/><rect x="200" y="100" width="18" height="18" fill="#434343" stroke="white" stroke-width="0"/><rect x="220" y="100" width="18" height="18" fill="#434343" stroke="white" stroke-width="0"/><rect x="240" y="100" width="18" height="18" fill="#434343" stroke="white" stroke-width="0"/><rect x="260" y="100" width="18" height="18" fill="#5c986f" stroke="white" stroke-width="0"/><rect x="280" y="100" width="18" height="18" fill="#434343" stroke="white" stroke-width="0"/><rect x="0" y="120" width="18" height="18" fill="#e5f5e0" stroke="white" stroke-width="0"/><rect x="20" y="120" width="18" height="18" fill="#a3d9b1" stroke="white" stroke-width="0"/><rect x="40" y="120" width="18" height="18" fill="#e5f5e0" stroke="white" stroke-width="0"/><rect x="60" y="120" width="18" height="18" fill="#434343" stroke="white" stroke-width="0"/><rect x="80" y="120" width="18" height="18" fill="#e5f5e0" stroke="white" stroke-width="0"/><rect x="100" y="120" width="18" height="18" fill="#434343" stroke="white" stroke-width="0"/><rect x="120" y="120" width="18" height="18" fill="#434343" stroke="white" stroke-width="0"/><rect x="140" y="120" width="18" height="18" fill="#434343" stroke="white" stroke-width="0"/><rect x="160" y="120" width="18" height="18" fill="#434343" stroke="white" stroke-width="0"/><rect x="180" y="120" width="18" height="18" fill="#434343" stroke="white" stroke-width="0"/><rect x="200" y="120" width="18" height="18" fill="#434343" stroke="white" stroke-width="0"/><rect x="220" y="120" width="18" height="18" fill="#434343" stroke="white" stroke-width="0"/><rect x="240" y="120" width="18" height="18" fill="#e5f5e0" stroke="white" stroke-width="0"/><rect x="260" y="120" width="18" height="18" fill="#94cba3" stroke="white" stroke-width="0"/><rect x="280" y="120" width="18" height="18" fill="#e5f5e0" stroke="white" stroke-width="0"/><rect x="0" y="140" width="18" height="18" fill="#e5f5e0" stroke="white" stroke-width="0"/><rect x="20" y="140" width="18" height="18" fill="#e5f5e0" stroke="white" stroke-width="0"/><rect x="40" y="140" width="18" height="18" fill="#434343" stroke="white" stroke-width="0"/><rect x="60" y="140" width="18" height="18" fill="#434343" stroke="white" stroke-width="0"/><rect x="80" y="140" width="18" height="18" fill="#434343" stroke="white" stroke-width="0"/><rect x="100" y="140" width="18" height="18" fill="#434343" stroke="white" stroke-width="0"/><rect x="120" y="140" width="18" height="18" fill="#434343" stroke="white" stroke-width="0"/><rect x="140" y="140" width="18" height="18" fill="#434343" stroke="white" stroke-width="0"/><rect x="160" y="140" width="18" height="18" fill="#434343" stroke="white" stroke-width="0"/><rect x="180" y="140" width="18" height="18" fill="#434343" stroke="white" stroke-width="0"/><rect x="200" y="140" width="18" height="18" fill="#434343" stroke="white" stroke-width="0"/><rect x="220" y="140" width="18" height="18" fill="#434343" stroke="white" stroke-width="0"/><rect x="240" y="140" width="18" height="18" fill="#434343" stroke="white" stroke-width="0"/><rect x="260" y="140" width="18" height="18" fill="#434343" stroke="white" stroke-width="0"/><rect x="280" y="140" width="18" height="18" fill="#8fc69e" stroke="white" stroke-width="0"/><rect x="0" y="160" width="18" height="18" fill="#e5f5e0" stroke="white" stroke-width="0"/><rect x="20" y="160" width="18" height="18" fill="#e5f5e0" stroke="white" stroke-width="0"/><rect x="40" y="160" width="18" height="18" fill="#e5f5e0" stroke="white" stroke-width="0"/><rect x="60" y="160" width="18" height="18" fill="#434343" stroke="white" stroke-width="0"/><rect x="80" y="160" width="18" height="18" fill="#434343" stroke="white" stroke-width="0"/><rect x="100" y="160" width="18" height="18" fill="#434343" stroke="white" stroke-width="0"/><rect x="120" y="160" width="18" height="18" fill="#e5f5e0" stroke="white" stroke-width="0"/><rect x="140" y="160" width="18" height="18" fill="#434343" stroke="white" stroke-width="0"/><rect x="160" y="160" width="18" height="18" fill="#e5f5e0" stroke="white" stroke-width="0"/><rect x="180" y="160" width="18" height="18" fill="#9ed4ac" stroke="white" stroke-width="0"/><rect x="200" y="160" width="18" height="18" fill="#434343" stroke="white" stroke-width="0"/><rect x="220" y="160" width="18" height="18" fill="#434343" stroke="white" stroke-width="0"/><rect x="240" y="160" width="18" height="18" fill="#434343" stroke="white" stroke-width="0"/><rect x="260" y="160" width="18" height="18" fill="#434343" stroke="white" stroke-width="0"/><rect x="280" y="160" width="18" height="18" fill="#8ac299" stroke="white" stroke-width="0"/><rect x="0" y="180" width="18" height="18" fill="#e5f5e0" stroke="white" stroke-width="0"/><rect x="20" y="180" width="18" height="18" fill="#e5f5e0" stroke="white" stroke-width="0"/><rect x="40" y="180" width="18" height="18" fill="#434343" stroke="white" stroke-width="0"/><rect x="60" y="180" width="18" height="18" fill="#434343" stroke="white" stroke-width="0"/><rect x="80" y="180" width="18" height="18" fill="#434343" stroke="white" stroke-width="0"/><rect x="100" y="180" width="18" height="18" fill="#434343" stroke="white" stroke-width="0"/><rect x="120" y="180" width="18" height="18" fill="#a3d9b1" stroke="white" stroke-width="0"/><rect x="140" y="180" width="18" height="18" fill="#434343" stroke="white" stroke-width="0"/><rect x="160" y="180" width="18" height="18" fill="#e5f5e0" stroke="white" stroke-width="0"/><rect x="180" y="180" width="18" height="18" fill="#434343" stroke="white" stroke-width="0"/><rect x="200" y="180" width="18" height="18" fill="#e5f5e0" stroke="white" stroke-width="0"/><rect x="220" y="180" width="18" height="18" fill="#434343" stroke="white" stroke-width="0"/><rect x="240" y="180" width="18" height="18" fill="#434343" stroke="white" stroke-width="0"/><rect x="260" y="180" width="18" height="18" fill="#a3d9b1" stroke="white" stroke-width="0"/><rect x="280" y="180" width="18" height="18" fill="#e5f5e0" stroke="white" stroke-width="0"/><rect x="0" y="200" width="18" height="18" fill="#e5f5e0" stroke="white" stroke-width="0"/><rect x="20" y="200" width="18" height="18" fill="#e5f5e0" stroke="white" stroke-width="0"/><rect x="40" y="200" width="18" height="18" fill="#a3d9b1" stroke="white" stroke-width="0"/><rect x="60" y="200" width="18" height="18" fill="#434343" stroke="white" stroke-width="0"/><rect x="80" y="200" width="18" height="18" fill="#434343" stroke="white" stroke-width="0"/><rect x="100" y="200" width="18" height="18" fill="#434343" stroke="white" stroke-width="0"/><rect x="120" y="200" width="18" height="18" fill="#434343" stroke="white" stroke-width="0"/><rect x="140" y="200" width="18" height="18" fill="#434343" stroke="white" stroke-width="0"/><rect x="160" y="200" width="18" height="18" fill="#434343" stroke="white" stroke-width="0"/><rect x="180" y="200" width="18" height="18" fill="#434343" stroke="white" stroke-width="0"/><rect x="200" y="200" width="18" height="18" fill="#434343" stroke="white" stroke-width="0"/><rect x="220" y="200" width="18" height="18" fill="#434343" stroke="white" stroke-width="0"/><rect x="240" y="200" width="18" height="18" fill="#434343" stroke="white" stroke-width="0"/><rect x="260" y="200" width="18" height="18" fill="#9ed4ac" stroke="white" stroke-width="0"/><rect x="280" y="200" width="18" height="18" fill="#48855d" stroke="white" stroke-width="0"/><rect x="0" y="220" width="18" height="18" fill="#e5f5e0" stroke="white" stroke-width="0"/><rect x="20" y="220" width="18" height="18" fill="#e5f5e0" stroke="white" stroke-width="0"/><rect x="40" y="220" width="18" height="18" fill="#e5f5e0" stroke="white" stroke-width="0"/><rect x="60" y="220" width="18" height="18" fill="#434343" stroke="white" stroke-width="0"/><rect x="80" y="220" width="18" height="18" fill="#434343" stroke="white" stroke-width="0"/><rect x="100" y="220" width="18" height="18" fill="#434343" stroke="white" stroke-width="0"/><rect x="120" y="220" width="18" height="18" fill="#434343" stroke="white" stroke-width="0"/><rect x="140" y="220" width="18" height="18" fill="#434343" stroke="white" stroke-width="0"/><rect x="160" y="220" width="18" height="18" fill="#434343" stroke="white" stroke-width="0"/><rect x="180" y="220" width="18" height="18" fill="#434343" stroke="white" stroke-width="0"/><rect x="200" y="220" width="18" height="18" fill="#8fc69e" stroke="white" stroke-width="0"/><rect x="220" y="220" width="18" height="18" fill="#e5f5e0" stroke="white" stroke-width="0"/><rect x="240" y="220" width="18" height="18" fill="#434343" stroke="white" stroke-width="0"/><rect x="260" y="220" width="18" height="18" fill="#434343" stroke="white" stroke-width="0"/><rect x="280" y="220" width="18" height="18" fill="#434343" stroke="white" stroke-width="0"/><rect x="0" y="240" width="18" height="18" fill="#e5f5e0" stroke="white" stroke-width="0"/><rect x="20" y="240" width="18" height="18" fill="#e5f5e0" stroke="white" stroke-width="0"/><rect x="40" y="240" width="18" height="18" fill="#9ed4ac" stroke="white" stroke-width="0"/><rect x="60" y="240" width="18" height="18" fill="#434343" stroke="white" stroke-width="0"/><rect x="80" y="240" width="18" height="18" fill="#99d0a8" stroke="white" stroke-width="0"/><rect x="100" y="240" width="18" height="18" fill="#9ed4ac" stroke="white" stroke-width="0"/><rect x="120" y="240" width="18" height="18" fill="#434343" stroke="white" stroke-width="0"/><rect x="140" y="240" width="18" height="18" fill="#434343" stroke="white" stroke-width="0"/><rect x="160" y="240" width="18" height="18" fill="#434343" stroke="white" stroke-width="0"/><rect x="180" y="240" width="18" height="18" fill="#a3d9b1" stroke="white" stroke-width="0"/><rect x="200" y="240" width="18" height="18" fill="#434343" stroke="white" stroke-width="0"/><rect x="220" y="240" width="18" height="18" fill="#e5f5e0" stroke="white" stroke-width="0"/><rect x="240" y="240" width="18" height="18" fill="#434343" stroke="white" stroke-width="0"/><rect x="260" y="240" width="18" height="18" fill="#a3d9b1" stroke="white" stroke-width="0"/><rect x="280" y="240" width="18" height="18" fill="#9ed4ac" stroke="white" stroke-width="0"/><rect x="0" y="260" width="18" height="18" fill="#e5f5e0" stroke="white" stroke-width="0"/><rect x="20" y="260" width="18" height="18" fill="#e5f5e0" stroke="white" stroke-width="0"/><rect x="40" y="260" width="18" height="18" fill="#e5f5e0" stroke="white" stroke-width="0"/><rect x="60" y="260" width="18" height="18" fill="#434343" stroke="white" stroke-width="0"/><rect x="80" y="260" width="18" height="18" fill="#434343" stroke="white" stroke-width="0"/><rect x="100" y="260" width="18" height="18" fill="#434343" stroke="white" stroke-width="0"/><rect x="120" y="260" width="18" height="18" fill="#434343" stroke="white" stroke-width="0"/><rect x="140" y="260" width="18" height="18" fill="#99d0a8" stroke="white" stroke-width="0"/><rect x="160" y="260" width="18" height="18" fill="#434343" stroke="white" stroke-width="0"/><rect x="180" y="260" width="18" height="18" fill="#e5f5e0" stroke="white" stroke-width="0"/><rect x="200" y="260" width="18" height="18" fill="#434343" stroke="white" stroke-width="0"/><rect x="220" y="260" width="18" height="18" fill="#434343" stroke="white" stroke-width="0"/><rect x="240" y="260" width="18" height="18" fill="#434343" stroke="white" stroke-width="0"/><rect x="260" y="260" width="18" height="18" fill="#434343" stroke="white" stroke-width="0"/><rect x="280" y="260" width="18" height="18" fill="#9ed4ac" stroke="white" stroke-width="0"/><rect x="0" y="280" width="18" height="18" fill="#e5f5e0" stroke="white" stroke-width="0"/><rect x="20" y="280" width="18" height="18" fill="#e5f5e0" stroke="white" stroke-width="0"/><rect x="40" y="280" width="18" height="18" fill="#e5f5e0" stroke="white" stroke-width="0"/><rect x="60" y="280" width="18" height="18" fill="#434343" stroke="white" stroke-width="0"/><rect x="80" y="280" width="18" height="18" fill="#434343" stroke="white" stroke-width="0"/><rect x="100" y="280" width="18" height="18" fill="#434343" stroke="white" stroke-width="0"/><rect x="120" y="280" width="18" height="18" fill="#434343" stroke="white" stroke-width="0"/><rect x="140" y="280" width="18" height="18" fill="#434343" stroke="white" stroke-width="0"/><rect x="160" y="280" width="18" height="18" fill="#434343" stroke="white" stroke-width="0"/><rect x="180" y="280" width="18" height="18" fill="#a3d9b1" stroke="white" stroke-width="0"/><rect x="200" y="280" width="18" height="18" fill="#434343" stroke="white" stroke-width="0"/><rect x="220" y="280" width="18" height="18" fill="#434343" stroke="white" stroke-width="0"/><rect x="240" y="280" width="18" height="18" fill="#e5f5e0" stroke="white" stroke-width="0"/><rect x="260" y="280" width="18" height="18" fill="#9ed4ac" stroke="white" stroke-width="0"/><rect x="280" y="280" width="18" height="18" fill="#434343" stroke="white" stroke-width="0"/><rect x="0" y="300" width="18" height="18" fill="#e5f5e0" stroke="white" stroke-width="0"/><rect x="20" y="300" width="18" height="18" fill="#a3d9b1" stroke="white" stroke-width="0"/><rect x="40" y="300" width="18" height="18" fill="#e5f5e0" stroke="white" stroke-width="0"/><rect x="60" y="300" width="18" height="18" fill="#434343" stroke="white" stroke-width="0"/><rect x="80" y="300" width="18" height="18" fill="#434343" stroke="white" stroke-width="0"/><rect x="100" y="300" width="18" height="18" fill="#434343" stroke="white" stroke-width="0"/><rect x="120" y="300" width="18" height="18" fill="#434343" stroke="white" stroke-width="0"/><rect x="140" y="300" width="18" height="18" fill="#434343" stroke="white" stroke-width="0"/><rect x="160" y="300" width="18" height="18" fill="#434343" stroke="white" stroke-width="0"/><rect x="180" y="300" width="18" height="18" fill="#a3d9b1" stroke="white" stroke-width="0"/><rect x="200" y="300" width="18" height="18" fill="#434343" stroke="white" stroke-width="0"/><rect x="220" y="300" width="18" height="18" fill="#434343" stroke="white" stroke-width="0"/><rect x="240" y="300" width="18" height="18" fill="#434343" stroke="white" stroke-width="0"/><rect x="260" y="300" width="18" height="18" fill="#9ed4ac" stroke="white" stroke-width="0"/><rect x="280" y="300" width="18" height="18" fill="#434343" stroke="white" stroke-width="0"/><rect x="0" y="320" width="18" height="18" fill="#e5f5e0" stroke="white" stroke-width="0"/><rect x="20" y="320" width="18" height="18" fill="#a3d9b1" stroke="white" stroke-width="0"/><rect x="40" y="320" width="18" height="18" fill="#a3d9b1" stroke="white" stroke-width="0"/><rect x="60" y="320" width="18" height="18" fill="#434343" stroke="white" stroke-width="0"/><rect x="80" y="320" width="18" height="18" fill="#434343" stroke="white" stroke-width="0"/><rect x="100" y="320" width="18" height="18" fill="#434343" stroke="white" stroke-width="0"/><rect x="120" y="320" width="18" height="18" fill="#434343" stroke="white" stroke-width="0"/><rect x="140" y="320" width="18" height="18" fill="#434343" stroke="white" stroke-width="0"/><rect x="160" y="320" width="18" height="18" fill="#434343" stroke="white" stroke-width="0"/><rect x="180" y="320" width="18" height="18" fill="#434343" stroke="white" stroke-width="0"/><rect x="200" y="320" width="18" height="18" fill="#57936b" stroke="white" stroke-width="0"/><rect x="220" y="320" width="18" height="18" fill="#434343" stroke="white" stroke-width="0"/><rect x="240" y="320" width="18" height="18" fill="#434343" stroke="white" stroke-width="0"/><rect x="260" y="320" width="18" height="18" fill="#00441b" stroke="white" stroke-width="0"/><rect x="280" y="320" width="18" height="18" fill="#8fc69e" stroke="white" stroke-width="0"/><rect x="0" y="340" width="18" height="18" fill="#a3d9b1" stroke="white" stroke-width="0"/><rect x="20" y="340" width="18" height="18" fill="#a3d9b1" stroke="white" stroke-width="0"/><rect x="40" y="340" width="18" height="18" fill="#a3d9b1" stroke="white" stroke-width="0"/><rect x="60" y="340" width="18" height="18" fill="#434343" stroke="white" stroke-width="0"/><rect x="80" y="340" width="18" height="18" fill="#434343" stroke="white" stroke-width="0"/><rect x="100" y="340" width="18" height="18" fill="#434343" stroke="white" stroke-width="0"/><rect x="120" y="340" width="18" height="18" fill="#434343" stroke="white" stroke-width="0"/><rect x="140" y="340" width="18" height="18" fill="#434343" stroke="white" stroke-width="0"/><rect x="160" y="340" width="18" height="18" fill="#434343" stroke="white" stroke-width="0"/><rect x="180" y="340" width="18" height="18" fill="#9ed4ac" stroke="white" stroke-width="0"/><rect x="200" y="340" width="18" height="18" fill="#434343" stroke="white" stroke-width="0"/><rect x="220" y="340" width="18" height="18" fill="#434343" stroke="white" stroke-width="0"/><rect x="240" y="340" width="18" height="18" fill="#6ba67d" stroke="white" stroke-width="0"/><rect x="260" y="340" width="18" height="18" fill="#434343" stroke="white" stroke-width="0"/><rect x="280" y="340" width="18" height="18" fill="#434343" stroke="white" stroke-width="0"/><rect x="0" y="360" width="18" height="18" fill="#e5f5e0" stroke="white" stroke-width="0"/><rect x="20" y="360" width="18" height="18" fill="#e5f5e0" stroke="white" stroke-width="0"/><rect x="40" y="360" width="18" height="18" fill="#a3d9b1" stroke="white" stroke-width="0"/><rect x="60" y="360" width="18" height="18" fill="#434343" stroke="white" stroke-width="0"/><rect x="80" y="360" width="18" height="18" fill="#434343" stroke="white" stroke-width="0"/><rect x="100" y="360" width="18" height="18" fill="#a3d9b1" stroke="white" stroke-width="0"/><rect x="120" y="360" width="18" height="18" fill="#434343" stroke="white" stroke-width="0"/><rect x="140" y="360" width="18" height="18" fill="#434343" stroke="white" stroke-width="0"/><rect x="160" y="360" width="18" height="18" fill="#434343" stroke="white" stroke-width="0"/><rect x="180" y="360" width="18" height="18" fill="#e5f5e0" stroke="white" stroke-width="0"/><rect x="200" y="360" width="18" height="18" fill="#434343" stroke="white" stroke-width="0"/><rect x="220" y="360" width="18" height="18" fill="#434343" stroke="white" stroke-width="0"/><rect x="240" y="360" width="18" height="18" fill="#434343" stroke="white" stroke-width="0"/><rect x="260" y="360" width="18" height="18" fill="#434343" stroke="white" stroke-width="0"/><rect x="280" y="360" width="18" height="18" fill="#434343" stroke="white" stroke-width="0"/><rect x="0" y="380" width="18" height="18" fill="#9ed4ac" stroke="white" stroke-width="0"/><rect x="20" y="380" width="18" height="18" fill="#a3d9b1" stroke="white" stroke-width="0"/><rect x="40" y="380" width="18" height="18" fill="#85bd95" stroke="white" stroke-width="0"/><rect x="60" y="380" width="18" height="18" fill="#434343" stroke="white" stroke-width="0"/><rect x="80" y="380" width="18" height="18" fill="#434343" stroke="white" stroke-width="0"/><rect x="100" y="380" width="18" height="18" fill="#434343" stroke="white" stroke-width="0"/><rect x="120" y="380" width="18" height="18" fill="#434343" stroke="white" stroke-width="0"/><rect x="140" y="380" width="18" height="18" fill="#99d0a8" stroke="white" stroke-width="0"/><rect x="160" y="380" width="18" height="18" fill="#434343" stroke="white" stroke-width="0"/><rect x="180" y="380" width="18" height="18" fill="#a3d9b1" stroke="white" stroke-width="0"/><rect x="200" y="380" width="18" height="18" fill="#e5f5e0" stroke="white" stroke-width="0"/><rect x="220" y="380" width="18" height="18" fill="#434343" stroke="white" stroke-width="0"/><rect x="240" y="380" width="18" height="18" fill="#434343" stroke="white" stroke-width="0"/><rect x="260" y="380" width="18" height="18" fill="#434343" stroke="white" stroke-width="0"/><rect x="280" y="380" width="18" height="18" fill="#434343" stroke="white" stroke-width="0"/><rect x="0" y="400" width="18" height="18" fill="#e5f5e0" stroke="white" stroke-width="0"/><rect x="20" y="400" width="18" height="18" fill="#e5f5e0" stroke="white" stroke-width="0"/><rect x="40" y="400" width="18" height="18" fill="#434343" stroke="white" stroke-width="0"/><rect x="60" y="400" width="18" height="18" fill="#434343" stroke="white" stroke-width="0"/><rect x="80" y="400" width="18" height="18" fill="#434343" stroke="white" stroke-width="0"/><rect x="100" y="400" width="18" height="18" fill="#434343" stroke="white" stroke-width="0"/><rect x="120" y="400" width="18" height="18" fill="#434343" stroke="white" stroke-width="0"/><rect x="140" y="400" width="18" height="18" fill="#434343" stroke="white" stroke-width="0"/><rect x="160" y="400" width="18" height="18" fill="#434343" stroke="white" stroke-width="0"/><rect x="180" y="400" width="18" height="18" fill="#434343" stroke="white" stroke-width="0"/><rect x="200" y="400" width="18" height="18" fill="#434343" stroke="white" stroke-width="0"/><rect x="220" y="400" width="18" height="18" fill="#434343" stroke="white" stroke-width="0"/><rect x="240" y="400" width="18" height="18" fill="#434343" stroke="white" stroke-width="0"/><rect x="260" y="400" width="18" height="18" fill="#76af87" stroke="white" stroke-width="0"/><rect x="280" y="400" width="18" height="18" fill="#434343" stroke="white" stroke-width="0"/><rect x="0" y="420" width="18" height="18" fill="#e5f5e0" stroke="white" stroke-width="0"/><rect x="20" y="420" width="18" height="18" fill="#e5f5e0" stroke="white" stroke-width="0"/><rect x="40" y="420" width="18" height="18" fill="#434343" stroke="white" stroke-width="0"/><rect x="60" y="420" width="18" height="18" fill="#434343" stroke="white" stroke-width="0"/><rect x="80" y="420" width="18" height="18" fill="#434343" stroke="white" stroke-width="0"/><rect x="100" y="420" width="18" height="18" fill="#e5f5e0" stroke="white" stroke-width="0"/><rect x="120" y="420" width="18" height="18" fill="#e5f5e0" stroke="white" stroke-width="0"/><rect x="140" y="420" width="18" height="18" fill="#e5f5e0" stroke="white" stroke-width="0"/><rect x="160" y="420" width="18" height="18" fill="#434343" stroke="white" stroke-width="0"/><rect x="180" y="420" width="18" height="18" fill="#e5f5e0" stroke="white" stroke-width="0"/><rect x="200" y="420" width="18" height="18" fill="#434343" stroke="white" stroke-width="0"/><rect x="220" y="420" width="18" height="18" fill="#434343" stroke="white" stroke-width="0"/><rect x="240" y="420" width="18" height="18" fill="#9ed4ac" stroke="white" stroke-width="0"/><rect x="260" y="420" width="18" height="18" fill="#71ab82" stroke="white" stroke-width="0"/><rect x="280" y="420" width="18" height="18" fill="#434343" stroke="white" stroke-width="0"/><rect x="0" y="440" width="18" height="18" fill="#e5f5e0" stroke="white" stroke-width="0"/><rect x="20" y="440" width="18" height="18" fill="#a3d9b1" stroke="white" stroke-width="0"/><rect x="40" y="440" width="18" height="18" fill="#434343" stroke="white" stroke-width="0"/><rect x="60" y="440" width="18" height="18" fill="#8ac299" stroke="white" stroke-width="0"/><rect x="80" y="440" width="18" height="18" fill="#a3d9b1" stroke="white" stroke-width="0"/><rect x="100" y="440" width="18" height="18" fill="#434343" stroke="white" stroke-width="0"/><rect x="120" y="440" width="18" height="18" fill="#434343" stroke="white" stroke-width="0"/><rect x="140" y="440" width="18" height="18" fill="#434343" stroke="white" stroke-width="0"/><rect x="160" y="440" width="18" height="18" fill="#434343" stroke="white" stroke-width="0"/><rect x="180" y="440" width="18" height="18" fill="#434343" stroke="white" stroke-width="0"/><rect x="200" y="440" width="18" height="18" fill="#434343" stroke="white" stroke-width="0"/><rect x="220" y="440" width="18" height="18" fill="#434343" stroke="white" stroke-width="0"/><rect x="240" y="440" width="18" height="18" fill="#e5f5e0" stroke="white" stroke-width="0"/><rect x="260" y="440" width="18" height="18" fill="#6ba67d" stroke="white" stroke-width="0"/><rect x="280" y="440" width="18" height="18" fill="#434343" stroke="white" stroke-width="0"/><rect x="0" y="460" width="18" height="18" fill="#e5f5e0" stroke="white" stroke-width="0"/><rect x="20" y="460" width="18" height="18" fill="#a3d9b1" stroke="white" stroke-width="0"/><rect x="40" y="460" width="18" height="18" fill="#99d0a8" stroke="white" stroke-width="0"/><rect x="60" y="460" width="18" height="18" fill="#434343" stroke="white" stroke-width="0"/><rect x="80" y="460" width="18" height="18" fill="#e5f5e0" stroke="white" stroke-width="0"/><rect x="100" y="460" width="18" height="18" fill="#434343" stroke="white" stroke-width="0"/><rect x="120" y="460" width="18" height="18" fill="#e5f5e0" stroke="white" stroke-width="0"/><rect x="140" y="460" width="18" height="18" fill="#e5f5e0" stroke="white" stroke-width="0"/><rect x="160" y="460" width="18" height="18" fill="#9ed4ac" stroke="white" stroke-width="0"/><rect x="180" y="460" width="18" height="18" fill="#434343" stroke="white" stroke-width="0"/><rect x="200" y="460" width="18" height="18" fill="#434343" stroke="white" stroke-width="0"/><rect x="220" y="460" width="18" height="18" fill="#e5f5e0" stroke="white" stroke-width="0"/><rect x="240" y="460" width="18" height="18" fill="#434343" stroke="white" stroke-width="0"/><rect x="260" y="460" width="18" height="18" fill="#9ed4ac" stroke="white" stroke-width="0"/><rect x="280" y="460" width="18" height="18" fill="#434343" stroke="white" stroke-width="0"/><rect x="0" y="480" width="18" height="18" fill="#e5f5e0" stroke="white" stroke-width="0"/><rect x="20" y="480" width="18" height="18" fill="#e5f5e0" stroke="white" stroke-width="0"/><rect x="40" y="480" width="18" height="18" fill="#434343" stroke="white" stroke-width="0"/><rect x="60" y="480" width="18" height="18" fill="#434343" stroke="white" stroke-width="0"/><rect x="80" y="480" width="18" height="18" fill="#434343" stroke="white" stroke-width="0"/><rect x="100" y="480" width="18" height="18" fill="#8ac299" stroke="white" stroke-width="0"/><rect x="120" y="480" width="18" height="18" fill="#434343" stroke="white" stroke-width="0"/><rect x="140" y="480" width="18" height="18" fill="#434343" stroke="white" stroke-width="0"/><rect x="160" y="480" width="18" height="18" fill="#434343" stroke="white" stroke-width="0"/><rect x="180" y="480" width="18" height="18" fill="#99d0a8" stroke="white" stroke-width="0"/><rect x="200" y="480" width="18" height="18" fill="#434343" stroke="white" stroke-width="0"/><rect x="220" y="480" width="18" height="18" fill="#434343" stroke="white" stroke-width="0"/><rect x="240" y="480" width="18" height="18" fill="#434343" stroke="white" stroke-width="0"/><rect x="260" y="480" width="18" height="18" fill="#e5f5e0" stroke="white" stroke-width="0"/><rect x="280" y="480" width="18" height="18" fill="#9ed4ac" stroke="white" stroke-width="0"/><rect x="0" y="500" width="18" height="18" fill="#e5f5e0" stroke="white" stroke-width="0"/><rect x="20" y="500" width="18" height="18" fill="#a3d9b1" stroke="white" stroke-width="0"/><rect x="40" y="500" width="18" height="18" fill="#434343" stroke="white" stroke-width="0"/><rect x="60" y="500" width="18" height="18" fill="#434343" stroke="white" stroke-width="0"/><rect x="80" y="500" width="18" height="18" fill="#434343" stroke="white" stroke-width="0"/><rect x="100" y="500" width="18" height="18" fill="#434343" stroke="white" stroke-width="0"/><rect x="120" y="500" width="18" height="18" fill="#434343" stroke="white" stroke-width="0"/><rect x="140" y="500" width="18" height="18" fill="#e5f5e0" stroke="white" stroke-width="0"/><rect x="160" y="500" width="18" height="18" fill="#e5f5e0" stroke="white" stroke-width="0"/><rect x="180" y="500" width="18" height="18" fill="#e5f5e0" stroke="white" stroke-width="0"/><rect x="200" y="500" width="18" height="18" fill="#e5f5e0" stroke="white" stroke-width="0"/><rect x="220" y="500" width="18" height="18" fill="#a3d9b1" stroke="white" stroke-width="0"/><rect x="240" y="500" width="18" height="18" fill="#a3d9b1" stroke="white" stroke-width="0"/><rect x="260" y="500" width="18" height="18" fill="#99d0a8" stroke="white" stroke-width="0"/><rect x="280" y="500" width="18" height="18" fill="#434343" stroke="white" stroke-width="0"/><rect x="0" y="520" width="18" height="18" fill="#e5f5e0" stroke="white" stroke-width="0"/><rect x="20" y="520" width="18" height="18" fill="#a3d9b1" stroke="white" stroke-width="0"/><rect x="40" y="520" width="18" height="18" fill="#434343" stroke="white" stroke-width="0"/><rect x="60" y="520" width="18" height="18" fill="#434343" stroke="white" stroke-width="0"/><rect x="80" y="520" width="18" height="18" fill="#434343" stroke="white" stroke-width="0"/><rect x="100" y="520" width="18" height="18" fill="#434343" stroke="white" stroke-width="0"/><rect x="120" y="520" width="18" height="18" fill="#434343" stroke="white" stroke-width="0"/><rect x="140" y="520" width="18" height="18" fill="#434343" stroke="white" stroke-width="0"/><rect x="160" y="520" width="18" height="18" fill="#434343" stroke="white" stroke-width="0"/><rect x="180" y="520" width="18" height="18" fill="#434343" stroke="white" stroke-width="0"/><rect x="200" y="520" width="18" height="18" fill="#434343" stroke="white" stroke-width="0"/><rect x="220" y="520" width="18" height="18" fill="#434343" stroke="white" stroke-width="0"/><rect x="240" y="520" width="18" height="18" fill="#434343" stroke="white" stroke-width="0"/><rect x="260" y="520" width="18" height="18" fill="#8ac299" stroke="white" stroke-width="0"/><rect x="280" y="520" width="18" height="18" fill="#99d0a8" stroke="white" stroke-width="0"/></svg>