<svg version="1.1" viewBox="0.0 0.0 600.0 371.0" fill="none" stroke="none" stroke-linecap="square" stroke-miterlimit="10" width="600" height="371" xmlns:xlink="http://www.w3.org/1999/xlink" xmlns="http://www.w3.org/2000/svg"><path fill="#434343" d="M0 0L600.0 0L600.0 371.0L0 371.0L0 0Z" fill-rule="nonzero"/><path stroke="#ffffff" stroke-width="1.0" stroke-linecap="butt" d="M77.5 345.5L581.5 345.5" fill-rule="nonzero"/><path stroke="#767676" stroke-width="1.0" stroke-linecap="butt" d="M77.5 265.5L581.5 265.5" fill-rule="nonzero"/><path stroke="#767676" stroke-width="1.0" stroke-linecap="butt" d="M77.5 185.5L581.5 185.5" fill-rule="nonzero"/><path stroke="#767676" stroke-width="1.0" stroke-linecap="butt" d="M77.5 105.5L581.5 105.5" fill-rule="nonzero"/><path stroke="#767676" stroke-width="1.0" stroke-linecap="butt" d="M77.5 25.5L581.5 25.5" fill-rule="nonzero"/><clipPath id="id_0"><path d="M77.55 25.55L581.45 25.55L581.45 345.45L77.55 345.45L77.55 25.55Z" clip-rule="nonzero"/></clipPath><path stroke="#000000" stroke-width="2.0" stroke-linecap="butt" stroke-opacity="0.0" clip-path="url(#id_0)" d="M96.0 345.0L84.0 345.0L84.0 315.0C84.0 313.89542 84.89543 313.0 86.0 313.0L94.0 313.0C95.10457 313.0 96.0 313.89542 96.0 315.0Z" fill-rule="nonzero"/><path fill="#238b45" clip-path="url(#id_0)" d="M96.0 345.0L84.0 345.0L84.0 315.0C84.0 313.89542 84.89543 313.0 86.0 313.0L94.0 313.0C95.10457 313.0 96.0 313.89542 96.0 315.0Z" fill-rule="nonzero"/><path stroke="#000000" stroke-width="2.0" stroke-linecap="butt" stroke-opacity="0.0" clip-path="url(#id_0)" d="M114.0 345.0L102.0 345.0L102.0 315.0C102.0 313.89542 102.89543 313.0 104.0 313.0L112.0 313.0C113.10457 313.0 114.0 313.89542 114.0 315.0Z" fill-rule="nonzero"/><path fill="#238b45" clip-path="url(#id_0)" d="M114.0 345.0L102.0 345.0L102.0 315.0C102.0 313.89542 102.89543 313.0 104.0 313.0L112.0 313.0C113.10457 313.0 114.0 313.89542 114.0 315.0Z" fill-rule="nonzero"/><path stroke="#000000" stroke-width="2.0" stroke-linecap="butt" stroke-opacity="0.0" clip-path="url(#id_0)" d="M133.0 345.0L121.0 345.0L121.0 311.0C121.0 309.89542 121.89543 309.0 123.0 309.0L131.0 309.0C132.10457 309.0 133.0 309.89542 133.0 311.0Z" fill-rule="nonzero"/><path fill="#238b45" clip-path="url(#id_0)" d="M133.0 345.0L121.0 345.0L121.0 311.0C121.0 309.89542 121.89543 309.0 123.0 309.0L131.0 309.0C132.10457 309.0 133.0 309.89542 133.0 311.0Z" fill-rule="nonzero"/><path stroke="#000000" stroke-width="2.0" stroke-linecap="butt" stroke-opacity="0.0" clip-path="url(#id_0)" d="M151.0 345.0L139.0 345.0L139.0 311.0C139.0 309.89542 139.89543 309.0 141.0 309.0L149.0 309.0C150.10457 309.0 151.0 309.89542 151.0 311.0Z" fill-rule="nonzero"/><path fill="#238b45" clip-path="url(#id_0)" d="M151.0 345.0L139.0 345.0L139.0 311.0C139.0 309.89542 139.89543 309.0 141.0 309.0L149.0 309.0C150.10457 309.0 151.0 309.89542 151.0 311.0Z" fill-rule="nonzero"/><path stroke="#000000" stroke-width="2.0" stroke-linecap="butt" stroke-opacity="0.0" clip-path="url(#id_0)" d="M170.0 345.0L158.0 345.0L158.0 311.0C158.0 309.89542 158.89543 309.0 160.0 309.0L168.0 309.0C169.10457 309.0 170.0 309.89542 170.0 311.0Z" fill-rule="nonzero"/><path fill="#238b45" clip-path="url(#id_0)" d="M170.0 345.0L158.0 345.0L158.0 311.0C158.0 309.89542 158.89543 309.0 160.0 309.0L168.0 309.0C169.10457 309.0 170.0 309.89542 170.0 311.0Z" fill-rule="nonzero"/><path stroke="#000000" stroke-width="2.0" stroke-linecap="butt" stroke-opacity="0.0" clip-path="url(#id_0)" d="M188.0 345.0L176.0 345.0L176.0 311.0C176.0 309.89542 176.89543 309.0 178.0 309.0L186.0 309.0C187.10457 309.0 188.0 309.89542 188.0 311.0Z" fill-rule="nonzero"/><path fill="#238b45" clip-path="url(#id_0)" d="M188.0 345.0L176.0 345.0L176.0 311.0C176.0 309.89542 176.89543 309.0 178.0 309.0L186.0 309.0C187.10457 309.0 188.0 309.89542 188.0 311.0Z" fill-rule="nonzero"/><path stroke="#000000" stroke-width="2.0" stroke-linecap="butt" stroke-opacity="0.0" clip-path="url(#id_0)" d="M207.0 345.0L195.0 345.0L195.0 307.0C195.0 305.89542 195.89543 305.0 197.0 305.0L205.0 305.0C206.10457 305.0 207.0 305.89542 207.0 307.0Z" fill-rule="nonzero"/><path fill="#238b45" clip-path="url(#id_0)" d="M207.0 345.0L195.0 345.0L195.0 307.0C195.0 305.89542 195.89543 305.0 197.0 305.0L205.0 305.0C206.10457 305.0 207.0 305.89542 207.0 307.0Z" fill-rule="nonzero"/><path stroke="#000000" stroke-width="2.0" stroke-linecap="butt" stroke-opacity="0.0" clip-path="url(#id_0)" d="M225.0 345.0L213.0 345.0L213.0 307.0C213.0 305.89542 213.89543 305.0 215.0 305.0L223.0 305.0C224.10457 305.0 225.0 305.89542 225.0 307.0Z" fill-rule="nonzero"/><path fill="#238b45" clip-path="url(#id_0)" d="M225.0 345.0L213.0 345.0L213.0 307.0C213.0 305.89542 213.89543 305.0 215.0 305.0L223.0 305.0C224.10457 305.0 225.0 305.89542 225.0 307.0Z" fill-rule="nonzero"/><path stroke="#000000" stroke-width="2.0" stroke-linecap="butt" stroke-opacity="0.0" clip-path="url(#id_0)" d="M243.0 345.0L231.0 345.0L231.0 303.0C231.0 301.89542 231.89543 301.0 233.0 301.0L241.0 301.0C242.10457 301.0 243.0 301.89542 243.0 303.0Z" fill-rule="nonzero"/><path fill="#238b45" clip-path="url(#id_0)" d="M243.0 345.0L231.0 345.0L231.0 303.0C231.0 301.89542 231.89543 301.0 233.0 301.0L241.0 301.0C242.10457 301.0 243.0 301.89542 243.0 303.0Z" fill-rule="nonzero"/><path stroke="#000000" stroke-width="2.0" stroke-linecap="butt" stroke-opacity="0.0" clip-path="url(#id_0)" d="M262.0 345.0L250.0 345.0L250.0 299.0C250.0 297.89542 250.89543 297.0 252.0 297.0L260.0 297.0C261.10458 297.0 262.0 297.89542 262.0 299.0Z" fill-rule="nonzero"/><path fill="#238b45" clip-path="url(#id_0)" d="M262.0 345.0L250.0 345.0L250.0 299.0C250.0 297.89542 250.89543 297.0 252.0 297.0L260.0 297.0C261.10458 297.0 262.0 297.89542 262.0 299.0Z" fill-rule="nonzero"/><path stroke="#000000" stroke-width="2.0" stroke-linecap="butt" stroke-opacity="0.0" clip-path="url(#id_0)" d="M280.0 345.0L268.0 345.0L268.0 295.0C268.0 293.89542 268.89542 293.0 270.0 293.0L278.0 293.0C279.10458 293.0 280.0 293.89542 280.0 295.0Z" fill-rule="nonzero"/><path fill="#238b45" clip-path="url(#id_0)" d="M280.0 345.0L268.0 345.0L268.0 295.0C268.0 293.89542 268.89542 293.0 270.0 293.0L278.0 293.0C279.10458 293.0 280.0 293.89542 280.0 295.0Z" fill-rule="nonzero"/><path stroke="#000000" stroke-width="2.0" stroke-linecap="butt" stroke-opacity="0.0" clip-path="url(#id_0)" d="M299.0 345.0L287.0 345.0L287.0 295.0C287.0 293.89542 287.89542 293.0 289.0 293.0L297.0 293.0C298.10458 293.0 299.0 293.89542 299.0 295.0Z" fill-rule="nonzero"/><path fill="#238b45" clip-path="url(#id_0)" d="M299.0 345.0L287.0 345.0L287.0 295.0C287.0 293.89542 287.89542 293.0 289.0 293.0L297.0 293.0C298.10458 293.0 299.0 293.89542 299.0 295.0Z" fill-rule="nonzero"/><path stroke="#000000" stroke-width="2.0" stroke-linecap="butt" stroke-opacity="0.0" clip-path="url(#id_0)" d="M317.0 345.0L305.0 345.0L305.0 291.0C305.0 289.89542 305.89542 289.0 307.0 289.0L315.0 289.0C316.10458 289.0 317.0 289.89542 317.0 291.0Z" fill-rule="nonzero"/><path fill="#238b45" clip-path="url(#id_0)" d="M317.0 345.0L305.0 345.0L305.0 291.0C305.0 289.89542 305.89542 289.0 307.0 289.0L315.0 289.0C316.10458 289.0 317.0 289.89542 317.0 291.0Z" fill-rule="nonzero"/><path stroke="#000000" stroke-width="2.0" stroke-linecap="butt" stroke-opacity="0.0" clip-path="url(#id_0)" d="M336.0 345.0L324.0 345.0L324.0 287.0C324.0 285.89542 324.89542 285.0 326.0 285.0L334.0 285.0C335.10458 285.0 336.0 285.89542 336.0 287.0Z" fill-rule="nonzero"/><path fill="#238b45" clip-path="url(#id_0)" d="M336.0 345.0L324.0 345.0L324.0 287.0C324.0 285.89542 324.89542 285.0 326.0 285.0L334.0 285.0C335.10458 285.0 336.0 285.89542 336.0 287.0Z" fill-rule="nonzero"/><path stroke="#000000" stroke-width="2.0" stroke-linecap="butt" stroke-opacity="0.0" clip-path="url(#id_0)" d="M354.0 345.0L342.0 345.0L342.0 287.0C342.0 285.89542 342.89542 285.0 344.0 285.0L352.0 285.0C353.10458 285.0 354.0 285.89542 354.0 287.0Z" fill-rule="nonzero"/><path fill="#238b45" clip-path="url(#id_0)" d="M354.0 345.0L342.0 345.0L342.0 287.0C342.0 285.89542 342.89542 285.0 344.0 285.0L352.0 285.0C353.10458 285.0 354.0 285.89542 354.0 287.0Z" fill-rule="nonzero"/><path stroke="#000000" stroke-width="2.0" stroke-linecap="butt" stroke-opacity="0.0" clip-path="url(#id_0)" d="M372.0 345.0L360.0 345.0L360.0 279.0C360.0 277.89542 360.89542 277.0 362.0 277.0L370.0 277.0C371.10458 277.0 372.0 277.89542 372.0 279.0Z" fill-rule="nonzero"/><path fill="#238b45" clip-path="url(#id_0)" d="M372.0 345.0L360.0 345.0L360.0 279.0C360.0 277.89542 360.89542 277.0 362.0 277.0L370.0 277.0C371.10458 277.0 372.0 277.89542 372.0 279.0Z" fill-rule="nonzero"/><path stroke="#000000" stroke-width="2.0" stroke-linecap="butt" stroke-opacity="0.0" clip-path="url(#id_0)" d="M391.0 345.0L379.0 345.0L379.0 279.0C379.0 277.89542 379.89542 277.0 381.0 277.0L389.0 277.0C390.10458 277.0 391.0 277.89542 391.0 279.0Z" fill-rule="nonzero"/><path fill="#238b45" clip-path="url(#id_0)" d="M391.0 345.0L379.0 345.0L379.0 279.0C379.0 277.89542 379.89542 277.0 381.0 277.0L389.0 277.0C390.10458 277.0 391.0 277.89542 391.0 279.0Z" fill-rule="nonzero"/><path stroke="#000000" stroke-width="2.0" stroke-linecap="butt" stroke-opacity="0.0" clip-path="url(#id_0)" d="M409.0 345.0L397.0 345.0L397.0 267.0C397.0 265.89542 397.89542 265.0 399.0 265.0L407.0 265.0C408.10458 265.0 409.0 265.89542 409.0 267.0Z" fill-rule="nonzero"/><path fill="#238b45" clip-path="url(#id_0)" d="M409.0 345.0L397.0 345.0L397.0 267.0C397.0 265.89542 397.89542 265.0 399.0 265.0L407.0 265.0C408.10458 265.0 409.0 265.89542 409.0 267.0Z" fill-rule="nonzero"/><path stroke="#000000" stroke-width="2.0" stroke-linecap="butt" stroke-opacity="0.0" clip-path="url(#id_0)" d="M428.0 345.0L416.0 345.0L416.0 267.0C416.0 265.89542 416.89542 265.0 418.0 265.0L426.0 265.0C427.10458 265.0 428.0 265.89542 428.0 267.0Z" fill-rule="nonzero"/><path fill="#238b45" clip-path="url(#id_0)" d="M428.0 345.0L416.0 345.0L416.0 267.0C416.0 265.89542 416.89542 265.0 418.0 265.0L426.0 265.0C427.10458 265.0 428.0 265.89542 428.0 267.0Z" fill-rule="nonzero"/><path stroke="#000000" stroke-width="2.0" stroke-linecap="butt" stroke-opacity="0.0" clip-path="url(#id_0)" d="M446.0 345.0L434.0 345.0L434.0 267.0C434.0 265.89542 434.89542 265.0 436.0 265.0L444.0 265.0C445.10458 265.0 446.0 265.89542 446.0 267.0Z" fill-rule="nonzero"/><path fill="#238b45" clip-path="url(#id_0)" d="M446.0 345.0L434.0 345.0L434.0 267.0C434.0 265.89542 434.89542 265.0 436.0 265.0L444.0 265.0C445.10458 265.0 446.0 265.89542 446.0 267.0Z" fill-rule="nonzero"/><path stroke="#000000" stroke-width="2.0" stroke-linecap="butt" stroke-opacity="0.0" clip-path="url(#id_0)" d="M464.0 345.0L452.0 345.0L452.0 263.0C452.0 261.89542 452.89542 261.0 454.0 261.0L462.0 261.0C463.10458 261.0 464.0 261.89542 464.0 263.0Z" fill-rule="nonzero"/><path fill="#238b45" clip-path="url(#id_0)" d="M464.0 345.0L452.0 345.0L452.0 263.0C452.0 261.89542 452.89542 261.0 454.0 261.0L462.0 261.0C463.10458 261.0 464.0 261.89542 464.0 263.0Z" fill-rule="nonzero"/><path stroke="#000000" stroke-width="2.0" stroke-linecap="butt" stroke-opacity="0.0" clip-path="url(#id_0)" d="M483.0 345.0L471.0 345.0L471.0 259.0C471.0 257.89542 471.89542 257.0 473.0 257.0L481.0 257.0C482.10458 257.0 483.0 257.89542 483.0 259.0Z" fill-rule="nonzero"/><path fill="#238b45" clip-path="url(#id_0)" d="M483.0 345.0L471.0 345.0L471.0 259.0C471.0 257.89542 471.89542 257.0 473.0 257.0L481.0 257.0C482.10458 257.0 483.0 257.89542 483.0 259.0Z" fill-rule="nonzero"/><path stroke="#000000" stroke-width="2.0" stroke-linecap="butt" stroke-opacity="0.0" clip-path="url(#id_0)" d="M501.0 345.0L489.0 345.0L489.0 255.0C489.0 253.89543 489.89542 253.0 491.0 253.0L499.0 253.0C500.10458 253.0 501.0 253.89543 501.0 255.0Z" fill-rule="nonzero"/><path fill="#238b45" clip-path="url(#id_0)" d="M501.0 345.0L489.0 345.0L489.0 255.0C489.0 253.89543 489.89542 253.0 491.0 253.0L499.0 253.0C500.10458 253.0 501.0 253.89543 501.0 255.0Z" fill-rule="nonzero"/><path stroke="#000000" stroke-width="2.0" stroke-linecap="butt" stroke-opacity="0.0" clip-path="url(#id_0)" d="M520.0 345.0L508.0 345.0L508.0 243.0C508.0 241.89543 508.89542 241.0 510.0 241.0L518.0 241.0C519.10455 241.0 520.0 241.89543 520.0 243.0Z" fill-rule="nonzero"/><path fill="#238b45" clip-path="url(#id_0)" d="M520.0 345.0L508.0 345.0L508.0 243.0C508.0 241.89543 508.89542 241.0 510.0 241.0L518.0 241.0C519.10455 241.0 520.0 241.89543 520.0 243.0Z" fill-rule="nonzero"/><path stroke="#000000" stroke-width="2.0" stroke-linecap="butt" stroke-opacity="0.0" clip-path="url(#id_0)" d="M538.0 345.0L526.0 345.0L526.0 239.0C526.0 237.89543 526.89545 237.0 528.0 237.0L536.0 237.0C537.10455 237.0 538.0 237.89543 538.0 239.0Z" fill-rule="nonzero"/><path fill="#238b45" clip-path="url(#id_0)" d="M538.0 345.0L526.0 345.0L526.0 239.0C526.0 237.89543 526.89545 237.0 528.0 237.0L536.0 237.0C537.10455 237.0 538.0 237.89543 538.0 239.0Z" fill-rule="nonzero"/><path stroke="#000000" stroke-width="2.0" stroke-linecap="butt" stroke-opacity="0.0" clip-path="url(#id_0)" d="M557.0 345.0L545.0 345.0L545.0 203.0C545.0 201.89543 545.89545 201.0 547.0 201.0L555.0 201.0C556.10455 201.0 557.0 201.89543 557.0 203.0Z" fill-rule="nonzero"/><path fill="#238b45" clip-path="url(#id_0)" d="M557.0 345.0L545.0 345.0L545.0 203.0C545.0 201.89543 545.89545 201.0 547.0 201.0L555.0 201.0C556.10455 201.0 557.0 201.89543 557.0 203.0Z" fill-rule="nonzero"/><path stroke="#000000" stroke-width="2.0" stroke-linecap="butt" stroke-opacity="0.0" clip-path="url(#id_0)" d="M575.0 345.0L563.0 345.0L563.0 100.0C563.0 98.89543 563.89545 98.0 565.0 98.0L573.0 98.0C574.10455 98.0 575.0 98.89543 575.0 100.0Z" fill-rule="nonzero"/><path fill="#238b45" clip-path="url(#id_0)" d="M575.0 345.0L563.0 345.0L563.0 100.0C563.0 98.89543 563.89545 98.0 565.0 98.0L573.0 98.0C574.10455 98.0 575.0 98.89543 575.0 100.0Z" fill-rule="nonzero"/><path fill="#f3f3f3" d="M29.550013 241.07812L20.956263 241.07812L20.956263 239.92188L27.706263 235.40625L20.956263 235.40625L20.956263 234.3125L29.550013 234.3125L29.550013 235.48438L22.800013 240.0L29.550013 240.0L29.550013 241.07812ZM29.550013 228.125L28.628138 228.125Q29.690638 228.85938 29.690638 230.10938Q29.690638 230.65625 29.487513 231.14062Q29.268763 231.60938 28.956263 231.84375Q28.628138 232.07812 28.159388 232.17188Q27.862513 232.23438 27.175013 232.23438L23.331263 232.23438L23.331263 231.17188L26.784388 231.17188Q27.596888 231.17188 27.893763 231.10938Q28.300013 231.01562 28.550013 230.70312Q28.784388 230.375 28.784388 229.89062Q28.784388 229.42188 28.550013 229.01562Q28.300013 228.59375 27.878138 228.42188Q27.456263 228.23438 26.659388 228.23438L23.331263 228.23438L23.331263 227.1875L29.550013 227.1875L29.550013 228.125ZM22.550013 230.34375L20.909388 229.5625L20.909388 228.17188L22.550013 229.46875L22.550013 230.34375ZM29.550013 225.20312L23.331263 225.20312L23.331263 224.26562L24.206263 224.26562Q23.737513 223.96875 23.471888 223.48438Q23.190638 223.0 23.190638 222.375Q23.190638 221.6875 23.471888 221.25Q23.753138 220.79688 24.268763 220.625Q23.190638 219.875 23.190638 218.70312Q23.190638 217.76562 23.706263 217.28125Q24.206263 216.78125 25.284388 216.78125L29.550013 216.78125L29.550013 217.82812L25.628138 217.82812Q25.003138 217.82812 24.721888 217.9375Q24.440638 218.03125 24.268763 218.29688Q24.096888 218.5625 24.096888 218.9375Q24.096888 219.59375 24.534388 220.03125Q24.971888 220.45312 25.940638 220.45312L29.550013 220.45312L29.550013 221.51562L25.503138 221.51562Q24.800013 221.51562 24.456263 221.78125Q24.096888 222.03125 24.096888 222.60938Q24.096888 223.0625 24.331263 223.4375Q24.565638 223.8125 25.018763 223.98438Q25.471888 224.15625 26.315638 224.15625L29.550013 224.15625L29.550013 225.20312ZM27.550013 209.95312L27.675013 208.85938Q28.628138 209.10938 29.159388 209.8125Q29.690638 210.51562 29.690638 211.59375Q29.690638 212.95312 28.846888 213.76562Q28.003138 214.5625 26.487513 214.5625Q24.925013 214.5625 24.065638 213.75Q23.190638 212.9375 23.190638 211.65625Q23.190638 210.40625 24.034388 209.625Q24.878138 208.82812 26.425013 208.82812Q26.518763 208.82812 26.706263 208.82812L26.706263 213.46875Q27.737513 213.40625 28.284388 212.89062Q28.815638 212.375 28.815638 211.59375Q28.815638 211.01562 28.518763 210.60938Q28.206263 210.1875 27.550013 209.95312ZM25.846888 213.40625L25.846888 209.9375Q25.050013 210.0 24.659388 210.32812Q24.050013 210.84375 24.050013 211.64062Q24.050013 212.375 24.534388 212.875Q25.018763 213.35938 25.846888 213.40625ZM29.550013 207.21875L23.331263 207.21875L23.331263 206.26562L24.268763 206.26562Q23.612513 205.90625 23.409388 205.60938Q23.190638 205.29688 23.190638 204.92188Q23.190638 204.39062 23.518763 203.84375L24.503138 204.20312Q24.268763 204.59375 24.268763 204.96875Q24.268763 205.32812 24.487513 205.60938Q24.690638 205.875 25.065638 205.98438Q25.628138 206.17188 26.284388 206.17188L29.550013 206.17188L29.550013 207.21875ZM26.440638 203.59375Q24.706263 203.59375 23.878138 202.64062Q23.190638 201.84375 23.190638 200.6875Q23.190638 199.40625 24.034388 198.59375Q24.862513 197.76562 26.346888 197.76562Q27.550013 197.76562 28.237513 198.125Q28.925013 198.48438 29.315638 199.1875Q29.690638 199.875 29.690638 200.6875Q29.690638 201.98438 28.862513 202.79688Q28.018763 203.59375 26.440638 203.59375ZM26.440638 202.51562Q27.628138 202.51562 28.221888 202.0Q28.815638 201.46875 28.815638 200.6875Q28.815638 199.89062 28.221888 199.375Q27.628138 198.85938 26.409388 198.85938Q25.253138 198.85938 24.659388 199.39062Q24.065638 199.90625 24.065638 200.6875Q24.065638 201.46875 24.659388 202.0Q25.237513 202.51562 26.440638 202.51562ZM29.550013 189.17188L28.768763 189.17188Q29.690638 189.76562 29.690638 190.90625Q29.690638 191.65625 29.284388 192.28125Q28.862513 192.90625 28.128138 193.25Q27.393763 193.59375 26.440638 193.59375Q25.518763 193.59375 24.753138 193.28125Q23.987513 192.96875 23.596888 192.34375Q23.190638 191.71875 23.190638 190.95312Q23.190638 190.39062 23.425013 189.95312Q23.659388 189.51562 24.034388 189.23438L20.956263 189.23438L20.956263 188.1875L29.550013 188.1875L29.550013 189.17188ZM26.440638 192.5Q27.643763 192.5 28.237513 192.0Q28.815638 191.5 28.815638 190.8125Q28.815638 190.125 28.253138 189.64062Q27.690638 189.15625 26.534388 189.15625Q25.253138 189.15625 24.659388 189.65625Q24.065638 190.14062 24.065638 190.85938Q24.065638 191.5625 24.643763 192.03125Q25.206263 192.5 26.440638 192.5ZM27.550013 181.95312L27.675013 180.85938Q28.628138 181.10938 29.159388 181.8125Q29.690638 182.51562 29.690638 183.59375Q29.690638 184.95312 28.846888 185.76562Q28.003138 186.5625 26.487513 186.5625Q24.925013 186.5625 24.065638 185.75Q23.190638 184.9375 23.190638 183.65625Q23.190638 182.40625 24.034388 181.625Q24.878138 180.82812 26.425013 180.82812Q26.518763 180.82812 26.706263 180.82812L26.706263 185.46875Q27.737513 185.40625 28.284388 184.89062Q28.815638 184.375 28.815638 183.59375Q28.815638 183.01562 28.518763 182.60938Q28.206263 182.1875 27.550013 181.95312ZM25.846888 185.40625L25.846888 181.9375Q25.050013 182.0 24.659388 182.32812Q24.050013 182.84375 24.050013 183.64062Q24.050013 184.375 24.534388 184.875Q25.018763 185.35938 25.846888 185.40625ZM27.268763 172.14062L27.409388 171.10938Q28.471888 171.28125 29.081263 171.98438Q29.690638 172.6875 29.690638 173.70312Q29.690638 174.98438 28.862513 175.76562Q28.018763 176.53125 26.456263 176.53125Q25.456263 176.53125 24.706263 176.20312Q23.940638 175.85938 23.565638 175.1875Q23.190638 174.5 23.190638 173.6875Q23.190638 172.6875 23.706263 172.04688Q24.206263 171.39062 25.159388 171.20312L25.315638 172.23438Q24.690638 172.375 24.378138 172.75Q24.050013 173.125 24.050013 173.65625Q24.050013 174.45312 24.628138 174.95312Q25.190638 175.45312 26.425013 175.45312Q27.690638 175.45312 28.253138 174.96875Q28.815638 174.48438 28.815638 173.71875Q28.815638 173.09375 28.440638 172.6875Q28.065638 172.26562 27.268763 172.14062ZM26.440638 170.59375Q24.706263 170.59375 23.878138 169.64062Q23.190638 168.84375 23.190638 167.6875Q23.190638 166.40625 24.034388 165.59375Q24.862513 164.76562 26.346888 164.76562Q27.550013 164.76562 28.237513 165.125Q28.925013 165.48438 29.315638 166.1875Q29.690638 166.875 29.690638 167.6875Q29.690638 168.98438 28.862513 169.79688Q28.018763 170.59375 26.440638 170.59375ZM26.440638 169.51562Q27.628138 169.51562 28.221888 169.0Q28.815638 168.46875 28.815638 167.6875Q28.815638 166.89062 28.221888 166.375Q27.628138 165.85938 26.409388 165.85938Q25.253138 165.85938 24.659388 166.39062Q24.065638 166.90625 24.065638 167.6875Q24.065638 168.46875 24.659388 169.0Q25.237513 169.51562 26.440638 169.51562ZM29.550013 163.20312L23.331263 163.20312L23.331263 162.26562L24.206263 162.26562Q23.737513 161.96875 23.471888 161.48438Q23.190638 161.0 23.190638 160.375Q23.190638 159.6875 23.471888 159.25Q23.753138 158.79688 24.268763 158.625Q23.190638 157.875 23.190638 156.70312Q23.190638 155.76562 23.706263 155.28125Q24.206263 154.78125 25.284388 154.78125L29.550013 154.78125L29.550013 155.82812L25.628138 155.82812Q25.003138 155.82812 24.721888 155.9375Q24.440638 156.03125 24.268763 156.29688Q24.096888 156.5625 24.096888 156.9375Q24.096888 157.59375 24.534388 158.03125Q24.971888 158.45312 25.940638 158.45312L29.550013 158.45312L29.550013 159.51562L25.503138 159.51562Q24.800013 159.51562 24.456263 159.78125Q24.096888 160.03125 24.096888 160.60938Q24.096888 161.0625 24.331263 161.4375Q24.565638 161.8125 25.018763 161.98438Q25.471888 162.15625 26.315638 162.15625L29.550013 162.15625L29.550013 163.20312ZM29.550013 152.20312L23.331263 152.20312L23.331263 151.26562L24.206263 151.26562Q23.737513 150.96875 23.471888 150.48438Q23.190638 150.0 23.190638 149.375Q23.190638 148.6875 23.471888 148.25Q23.753138 147.79688 24.268763 147.625Q23.190638 146.875 23.190638 145.70312Q23.190638 144.76562 23.706263 144.28125Q24.206263 143.78125 25.284388 143.78125L29.550013 143.78125L29.550013 144.82812L25.628138 144.82812Q25.003138 144.82812 24.721888 144.9375Q24.440638 145.03125 24.268763 145.29688Q24.096888 145.5625 24.096888 145.9375Q24.096888 146.59375 24.534388 147.03125Q24.971888 147.45312 25.940638 147.45312L29.550013 147.45312L29.550013 148.51562L25.503138 148.51562Q24.800013 148.51562 24.456263 148.78125Q24.096888 149.03125 24.096888 149.60938Q24.096888 150.0625 24.331263 150.4375Q24.565638 150.8125 25.018763 150.98438Q25.471888 151.15625 26.315638 151.15625L29.550013 151.15625L29.550013 152.20312ZM22.175013 141.20312L20.956263 141.20312L20.956263 140.14062L22.175013 140.14062L22.175013 141.20312ZM29.550013 141.20312L23.331263 141.20312L23.331263 140.14062L29.550013 140.14062L29.550013 141.20312ZM28.612513 135.90625L29.534388 135.75Q29.628138 136.20312 29.628138 136.54688Q29.628138 137.125 29.456263 137.4375Q29.268763 137.75 28.971888 137.89062Q28.675013 138.01562 27.721888 138.01562L24.143763 138.01562L24.143763 138.78125L23.331263 138.78125L23.331263 138.01562L21.784388 138.01562L21.159388 136.96875L23.331263 136.96875L23.331263 135.90625L24.143763 135.90625L24.143763 136.96875L27.784388 136.96875Q28.237513 136.96875 28.362513 136.92188Q28.487513 136.85938 28.565638 136.73438Q28.643763 136.60938 28.643763 136.375Q28.643763 136.1875 28.612513 135.90625ZM27.690638 135.625L27.534388 134.59375Q28.159388 134.5 28.487513 134.10938Q28.815638 133.70312 28.815638 132.96875Q28.815638 132.25 28.534388 131.90625Q28.237513 131.54688 27.831263 131.54688Q27.471888 131.54688 27.268763 131.85938Q27.128138 132.07812 26.909388 132.9375Q26.612513 134.09375 26.409388 134.54688Q26.190638 134.98438 25.815638 135.21875Q25.440638 135.45312 24.971888 135.45312Q24.565638 135.45312 24.206263 135.26562Q23.846888 135.07812 23.612513 134.75Q23.440638 134.5 23.315638 134.07812Q23.190638 133.65625 23.190638 133.15625Q23.190638 132.4375 23.409388 131.89062Q23.612513 131.32812 23.971888 131.0625Q24.331263 130.79688 24.925013 130.70312L25.065638 131.73438Q24.596888 131.79688 24.331263 132.14062Q24.050013 132.46875 24.050013 133.09375Q24.050013 133.8125 24.300013 134.125Q24.534388 134.4375 24.862513 134.4375Q25.065638 134.4375 25.221888 134.3125Q25.393763 134.17188 25.503138 133.90625Q25.565638 133.75 25.768763 132.96875Q26.081263 131.84375 26.268763 131.40625Q26.456263 130.96875 26.815638 130.71875Q27.175013 130.46875 27.721888 130.46875Q28.253138 130.46875 28.721888 130.78125Q29.175013 131.07812 29.440638 131.65625Q29.690638 132.23438 29.690638 132.96875Q29.690638 134.1875 29.190638 134.82812Q28.675013 135.45312 27.690638 135.625Z" fill-rule="nonzero"/><path fill="#f3f3f3" d="M65.05 345.21564Q65.05 343.6844 65.3625 342.7625Q65.675 341.825 66.28438 341.325Q66.90938 340.825 67.84688 340.825Q68.53438 340.825 69.05 341.10626Q69.58125 341.3875 69.925 341.91876Q70.26875 342.4344 70.45625 343.1844Q70.64375 343.9344 70.64375 345.21564Q70.64375 346.73126 70.33125 347.65314Q70.03438 348.575 69.40938 349.09064Q68.8 349.59064 67.84688 349.59064Q66.6125 349.59064 65.89375 348.7Q65.05 347.6375 65.05 345.21564ZM66.12813 345.21564Q66.12813 347.325 66.62813 348.02814Q67.12813 348.73126 67.84688 348.73126Q68.58125 348.73126 69.06563 348.02814Q69.56563 347.325 69.56563 345.21564Q69.56563 343.09064 69.06563 342.40314Q68.58125 341.7 67.83125 341.7Q67.1125 341.7 66.675 342.3094Q66.12813 343.09064 66.12813 345.21564Z" fill-rule="nonzero"/><path fill="#f3f3f3" d="M63.596874 268.45938L63.596874 269.475L57.909374 269.475Q57.909374 269.1 58.034374 268.74063Q58.253124 268.1625 58.721874 267.6Q59.20625 267.0375 60.1125 266.30313Q61.51875 265.14688 62.003124 264.475Q62.503124 263.80313 62.503124 263.20938Q62.503124 262.58438 62.05 262.1625Q61.596874 261.725 60.878124 261.725Q60.1125 261.725 59.659374 262.17813Q59.20625 262.63126 59.190624 263.44376L58.1125 263.33438Q58.221874 262.11563 58.940624 261.49063Q59.675 260.85 60.909374 260.85Q62.14375 260.85 62.8625 261.5375Q63.58125 262.225 63.58125 263.24063Q63.58125 263.75626 63.3625 264.25626Q63.159374 264.74063 62.659374 265.30313Q62.175 265.85 61.05 266.80313Q60.096874 267.6 59.815624 267.89688Q59.55 268.17813 59.378124 268.45938L63.596874 268.45938ZM65.05 265.24063Q65.05 263.70938 65.3625 262.7875Q65.675 261.85 66.28438 261.35Q66.90938 260.85 67.84688 260.85Q68.53438 260.85 69.05 261.13126Q69.58125 261.4125 69.925 261.94376Q70.26875 262.45938 70.45625 263.20938Q70.64375 263.95938 70.64375 265.24063Q70.64375 266.75626 70.33125 267.67813Q70.03438 268.6 69.40938 269.11563Q68.8 269.61563 67.84688 269.61563Q66.6125 269.61563 65.89375 268.725Q65.05 267.6625 65.05 265.24063ZM66.12813 265.24063Q66.12813 267.35 66.62813 268.05313Q67.12813 268.75626 67.84688 268.75626Q68.58125 268.75626 69.06563 268.05313Q69.56563 267.35 69.56563 265.24063Q69.56563 263.11563 69.06563 262.42813Q68.58125 261.725 67.83125 261.725Q67.1125 261.725 66.675 262.33438Q66.12813 263.11563 66.12813 265.24063Z" fill-rule="nonzero"/><path fill="#f3f3f3" d="M61.425 189.5L61.425 187.4375L57.70625 187.4375L57.70625 186.46875L61.628124 180.90625L62.4875 180.90625L62.4875 186.46875L63.64375 186.46875L63.64375 187.4375L62.4875 187.4375L62.4875 189.5L61.425 189.5ZM61.425 186.46875L61.425 182.60938L58.7375 186.46875L61.425 186.46875ZM65.05 185.26562Q65.05 183.73438 65.3625 182.8125Q65.675 181.875 66.28438 181.375Q66.90938 180.875 67.84688 180.875Q68.53438 180.875 69.05 181.15625Q69.58125 181.4375 69.925 181.96875Q70.26875 182.48438 70.45625 183.23438Q70.64375 183.98438 70.64375 185.26562Q70.64375 186.78125 70.33125 187.70312Q70.03438 188.625 69.40938 189.14062Q68.8 189.64062 67.84688 189.64062Q66.6125 189.64062 65.89375 188.75Q65.05 187.6875 65.05 185.26562ZM66.12813 185.26562Q66.12813 187.375 66.62813 188.07812Q67.12813 188.78125 67.84688 188.78125Q68.58125 188.78125 69.06563 188.07812Q69.56563 187.375 69.56563 185.26562Q69.56563 183.14062 69.06563 182.45312Q68.58125 181.75 67.83125 181.75Q67.1125 181.75 66.675 182.35938Q66.12813 183.14062 66.12813 185.26562Z" fill-rule="nonzero"/><path fill="#f3f3f3" d="M63.51875 103.04063L62.471874 103.11875Q62.33125 102.49375 62.08125 102.2125Q61.64375 101.75938 61.01875 101.75938Q60.51875 101.75938 60.128124 102.04063Q59.64375 102.41563 59.346874 103.11875Q59.065624 103.80625 59.05 105.0875Q59.425 104.50938 59.971874 104.22813Q60.534374 103.94688 61.14375 103.94688Q62.190624 103.94688 62.925 104.72813Q63.675 105.50938 63.675 106.72813Q63.675 107.54063 63.315624 108.24375Q62.971874 108.93125 62.3625 109.30625Q61.753124 109.66563 60.9875 109.66563Q59.659374 109.66563 58.83125 108.69688Q58.003124 107.72813 58.003124 105.50938Q58.003124 103.00938 58.925 101.88438Q59.721874 100.9 61.08125 100.9Q62.096874 100.9 62.7375 101.47813Q63.39375 102.04063 63.51875 103.04063ZM59.221874 106.74375Q59.221874 107.29063 59.440624 107.79063Q59.675 108.275 60.08125 108.54063Q60.503124 108.80625 60.971874 108.80625Q61.628124 108.80625 62.1125 108.275Q62.596874 107.72813 62.596874 106.80625Q62.596874 105.91563 62.1125 105.4Q61.64375 104.88438 60.925 104.88438Q60.20625 104.88438 59.70625 105.4Q59.221874 105.91563 59.221874 106.74375ZM65.05 105.29063Q65.05 103.75938 65.3625 102.8375Q65.675 101.9 66.28438 101.4Q66.90938 100.9 67.84688 100.9Q68.53438 100.9 69.05 101.18125Q69.58125 101.4625 69.925 101.99375Q70.26875 102.50938 70.45625 103.25938Q70.64375 104.00938 70.64375 105.29063Q70.64375 106.80625 70.33125 107.72813Q70.03438 108.65 69.40938 109.16563Q68.8 109.66563 67.84688 109.66563Q66.6125 109.66563 65.89375 108.775Q65.05 107.7125 65.05 105.29063ZM66.12813 105.29063Q66.12813 107.4 66.62813 108.10313Q67.12813 108.80625 67.84688 108.80625Q68.58125 108.80625 69.06563 108.10313Q69.56563 107.4 69.56563 105.29063Q69.56563 103.16563 69.06563 102.47813Q68.58125 101.775 67.83125 101.775Q67.1125 101.775 66.675 102.38438Q66.12813 103.16563 66.12813 105.29063Z" fill-rule="nonzero"/><path fill="#f3f3f3" d="M59.675 24.89375Q59.01875 24.64375 58.690624 24.20625Q58.378124 23.753124 58.378124 23.14375Q58.378124 22.20625 59.05 21.565624Q59.7375 20.925 60.846874 20.925Q61.971874 20.925 62.659374 21.58125Q63.346874 22.2375 63.346874 23.175Q63.346874 23.76875 63.034374 24.20625Q62.721874 24.64375 62.08125 24.89375Q62.878124 25.14375 63.284374 25.721874Q63.690624 26.3 63.690624 27.096874Q63.690624 28.190624 62.909374 28.940624Q62.14375 29.690624 60.8625 29.690624Q59.596874 29.690624 58.815624 28.940624Q58.034374 28.190624 58.034374 27.065624Q58.034374 26.221874 58.45625 25.659374Q58.89375 25.096874 59.675 24.89375ZM59.45625 23.096874Q59.45625 23.70625 59.846874 24.096874Q60.253124 24.4875 60.878124 24.4875Q61.4875 24.4875 61.878124 24.1125Q62.26875 23.721874 62.26875 23.159374Q62.26875 22.58125 61.8625 22.190624Q61.45625 21.784374 60.8625 21.784374Q60.253124 21.784374 59.846874 22.175Q59.45625 22.565624 59.45625 23.096874ZM59.128124 27.065624Q59.128124 27.51875 59.33125 27.940624Q59.55 28.3625 59.971874 28.596874Q60.39375 28.83125 60.878124 28.83125Q61.628124 28.83125 62.1125 28.346874Q62.6125 27.8625 62.6125 27.1125Q62.6125 26.346874 62.1125 25.846874Q61.6125 25.346874 60.846874 25.346874Q60.096874 25.346874 59.6125 25.846874Q59.128124 26.33125 59.128124 27.065624ZM65.05 25.315624Q65.05 23.784374 65.3625 22.8625Q65.675 21.925 66.28438 21.425Q66.90938 20.925 67.84688 20.925Q68.53438 20.925 69.05 21.20625Q69.58125 21.4875 69.925 22.01875Q70.26875 22.534374 70.45625 23.284374Q70.64375 24.034374 70.64375 25.315624Q70.64375 26.83125 70.33125 27.753124Q70.03438 28.675 69.40938 29.190624Q68.8 29.690624 67.84688 29.690624Q66.6125 29.690624 65.89375 28.8Q65.05 27.7375 65.05 25.315624ZM66.12813 25.315624Q66.12813 27.425 66.62813 28.128124Q67.12813 28.83125 67.84688 28.83125Q68.58125 28.83125 69.06563 28.128124Q69.56563 27.425 69.56563 25.315624Q69.56563 23.190624 69.06563 22.503124Q68.58125 21.8 67.83125 21.8Q67.1125 21.8 66.675 22.409374Q66.12813 23.190624 66.12813 25.315624Z" fill-rule="nonzero"/></svg>